<?xml version="1.0" encoding="utf-8"?>
<svg xmlns="http://www.w3.org/2000/svg"
	xmlns:xlink="http://www.w3.org/1999/xlink"
	width="118px" height="60px" viewBox="0 0 118 60">
<path fillRule="evenodd" d="M 114.47 49.93C 114.47 49.93 114.47 49.58 114.47 49.58 115.42 49.47 115.53 49.23 115.3 48.65 115.3 48.3 114.83 47.01 114.47 45.96 114.47 45.96 114.47 45.96 114.47 45.96 114.47 45.96 111.65 45.96 111.65 45.96 111.53 46.43 111.18 47.59 110.94 48.3 110.71 49.23 110.82 49.47 112 49.58 112 49.58 112 49.93 112 49.93 112 49.93 108.7 49.93 108.7 49.93 108.7 49.93 108.7 49.58 108.7 49.58 109.65 49.47 109.88 49.23 110.35 47.71 110.35 47.71 113.3 39.18 113.3 39.18 113.3 39.18 113.65 38.94 113.65 38.94 113.65 38.94 114.59 41.98 114.59 41.98 115.3 44.09 115.89 46.19 116.48 47.83 116.95 49.35 117.18 49.47 118.01 49.58 118.01 49.58 118.01 49.93 118.01 49.93 118.01 49.93 114.47 49.93 114.47 49.93ZM 113.06 41.17C 112.59 42.57 112.24 43.97 111.77 45.38 111.77 45.38 114.36 45.38 114.36 45.38 114.36 45.38 113.06 41.17 113.06 41.17ZM 102.93 49.58C 104.11 49.47 104.23 49.35 104.23 47.95 104.23 47.95 104.23 41.05 104.23 41.05 104.23 39.88 104.11 39.64 102.93 39.53 102.93 39.53 102.93 39.18 102.93 39.18 102.93 39.18 106.82 39.18 106.82 39.18 106.82 39.18 106.82 39.53 106.82 39.53 105.52 39.64 105.41 39.88 105.41 41.05 105.41 41.05 105.41 47.95 105.41 47.95 105.41 49.35 105.52 49.47 106.82 49.58 106.82 49.58 106.82 49.93 106.82 49.93 106.82 49.93 102.93 49.93 102.93 49.93 102.93 49.93 102.93 49.58 102.93 49.58ZM 98.34 48.53C 97.87 47.83 97.28 46.54 96.81 45.73 96.57 45.26 96.34 45.02 95.75 45.02 95.75 45.02 95.16 45.02 95.16 45.02 95.16 45.02 95.16 47.95 95.16 47.95 95.16 49.35 95.28 49.47 96.45 49.58 96.45 49.58 96.45 49.93 96.45 49.93 96.45 49.93 92.45 49.93 92.45 49.93 92.45 49.93 92.45 49.58 92.45 49.58 93.74 49.47 93.86 49.35 93.86 47.95 93.86 47.95 93.87 47.95 93.87 47.95 93.87 47.95 93.87 41.05 93.87 41.05 93.87 39.88 93.75 39.64 92.57 39.53 92.57 39.53 92.57 39.18 92.57 39.18 92.57 39.18 96.22 39.18 96.22 39.18 97.28 39.18 98.1 39.29 98.69 39.76 99.28 40.23 99.64 40.93 99.64 41.75 99.64 43.15 98.93 44.09 97.63 44.67 97.99 45.14 98.58 46.43 99.05 47.13 99.52 47.95 99.87 48.41 100.22 48.88 100.7 49.35 100.93 49.58 101.4 49.7 101.4 49.7 101.4 50.05 101.4 50.05 101.17 50.05 101.05 50.05 100.93 50.05 99.52 50.05 98.93 49.47 98.34 48.53ZM 98.22 41.98C 98.22 40.35 97.16 39.64 95.98 39.64 95.63 39.64 95.39 39.64 95.28 39.76 95.16 39.76 95.16 39.88 95.16 40.23 95.16 40.23 95.16 44.56 95.16 44.56 95.16 44.56 95.98 44.56 95.98 44.56 96.57 44.56 97.04 44.44 97.4 44.21 97.98 43.62 98.22 42.92 98.22 41.98ZM 86.21 50.17C 83.85 50.17 82.2 47.71 82.2 44.67 82.2 41.87 83.5 38.94 86.44 38.94 88.56 38.94 90.45 41.05 90.45 44.32 90.45 47.95 88.68 50.17 86.21 50.17ZM 86.09 39.53C 84.56 39.53 83.62 41.05 83.62 44.21 83.62 47.36 84.56 49.58 86.56 49.58 88.09 49.58 88.92 48.06 88.92 44.91 88.92 41.4 87.97 39.53 86.09 39.53ZM 58.76 32.86C 46.75 32.86 36.86 25.85 36.27 17.31 36.62 17.55 37.09 17.66 37.56 17.66 37.92 17.66 38.27 17.55 38.51 17.43 39.21 25.03 48.05 31.11 58.76 31.11 69.13 31.11 77.73 25.26 78.79 17.9 79.14 18.01 79.38 18.13 79.85 18.13 80.08 18.13 80.2 18.13 80.44 18.01 80.67 17.9 80.91 17.9 81.14 17.66 80.32 26.08 70.43 32.86 58.76 32.86ZM 64.3 22.92C 62.65 23.39 61.83 23.16 61.47 22.46 61.24 22.46 61 22.57 60.77 22.57 58.88 23.04 56.76 23.16 54.88 23.04 49.46 26.78 44.75 24.91 45.81 22.11 46.05 21.17 47.34 19.77 47.69 19.42 47.46 19.07 47.22 18.72 47.11 18.25 46.04 14.16 50.17 9.36 57.47 8.19 59.47 7.84 61.24 7.96 62.77 8.43 63.83 8.89 64.54 9.48 65.01 10.3 65.24 10.18 65.48 9.95 65.83 9.83 66.42 9.36 67.01 9.01 67.6 8.78 68.19 8.54 68.89 8.31 69.72 8.19 69.72 8.19 71.25 8.19 71.25 8.19 71.25 8.19 71.25 8.78 71.25 8.78 71.25 8.78 69.6 8.78 69.6 8.78 69.13 9.6 67.83 11.47 66.42 13.45 67.95 13.69 69.25 13.92 70.31 14.39 70.78 14.62 71.13 15.56 71.01 16.03 70.31 19.18 67.13 20.94 63.01 21.99 63.24 22.57 63.48 22.81 64.3 22.92ZM 79.02 14.86C 78.9 14.97 78.9 14.97 78.79 14.97 77.84 7.49 69.13 1.53 58.76 1.53 48.4 1.53 39.92 7.26 38.74 14.62 38.27 14.39 37.92 14.27 37.45 14.27 37.09 14.27 36.62 14.39 36.39 14.62 37.56 6.32 47.22 0.01 58.76 0.01 70.31 0.01 80.2 6.56 81.14 15.09 80.79 14.86 80.32 14.74 79.85 14.74 79.61 14.74 79.26 14.86 79.02 14.86ZM 31.32 39.53C 31.32 39.53 31.32 39.18 31.32 39.18 31.32 39.18 37.92 39.18 37.92 39.18 37.92 39.53 38.04 40.7 38.15 41.4 38.15 41.4 37.68 41.4 37.68 41.4 37.56 40.93 37.33 40.46 37.09 40.11 36.86 39.88 36.39 39.65 35.56 39.65 35.56 39.65 34.38 39.65 34.38 39.65 33.91 39.65 33.91 39.76 33.91 40.23 33.91 40.23 33.91 43.97 33.91 43.97 33.91 43.97 35.33 43.97 35.33 43.97 36.62 43.97 36.74 43.86 36.98 42.8 36.98 42.8 37.33 42.8 37.33 42.8 37.33 42.8 37.33 45.84 37.33 45.84 37.33 45.84 36.98 45.84 36.98 45.84 36.74 44.67 36.5 44.56 35.33 44.56 35.33 44.56 33.91 44.56 33.91 44.56 33.91 44.56 33.91 47.83 33.91 47.83 33.91 48.65 34.03 49 34.27 49.23 34.62 49.47 34.97 49.47 35.8 49.47 36.74 49.47 37.33 49.23 37.68 48.88 37.92 48.53 38.15 48.06 38.39 47.36 38.39 47.36 38.86 47.36 38.86 47.36 38.74 47.71 38.51 49.47 38.39 49.93 38.39 49.93 31.2 49.93 31.2 49.93 31.2 49.93 31.2 49.58 31.2 49.58 32.5 49.47 32.62 49.23 32.62 47.95 32.62 47.95 32.62 41.05 32.62 41.05 32.62 39.88 32.5 39.65 31.32 39.53ZM 29.79 57.42C 30.14 57.53 30.38 57.65 30.5 57.77 30.73 57.77 30.85 58 30.97 58.12 30.97 58.35 31.09 58.47 31.09 58.82 31.09 58.94 30.97 59.17 30.85 59.4 30.85 59.64 30.62 59.75 30.38 59.87 30.26 59.99 30.03 59.99 29.67 59.99 29.2 59.99 28.85 59.87 28.61 59.64 28.38 59.4 28.26 59.05 28.26 58.59 28.26 58.59 28.97 58.59 28.97 58.59 28.97 58.82 29.08 59.05 29.2 59.17 29.32 59.29 29.44 59.29 29.67 59.29 29.91 59.29 30.03 59.29 30.14 59.17 30.26 59.05 30.38 58.94 30.38 58.82 30.38 58.7 30.38 58.59 30.26 58.47 30.26 58.47 30.14 58.35 30.03 58.35 29.91 58.35 29.79 58.23 29.44 58.23 29.08 58.12 28.85 57.88 28.73 57.77 28.5 57.53 28.38 57.3 28.38 56.95 28.38 56.83 28.38 56.6 28.5 56.36 28.61 56.25 28.73 56.13 28.97 56.01 29.2 55.9 29.32 55.9 29.67 55.9 30.03 55.9 30.38 56.01 30.62 56.25 30.85 56.48 30.97 56.71 30.97 57.07 30.97 57.07 30.26 57.07 30.26 57.07 30.26 56.95 30.14 56.71 30.03 56.71 30.03 56.6 29.79 56.6 29.67 56.6 29.44 56.6 29.32 56.6 29.2 56.71 29.08 56.71 29.08 56.83 29.08 56.95 29.08 57.07 29.08 57.07 29.2 57.18 29.2 57.3 29.44 57.3 29.79 57.42ZM 28.26 40.23C 28.02 39.88 27.55 39.65 26.73 39.65 26.73 39.65 25.9 39.65 25.9 39.65 25.9 39.65 25.9 47.83 25.9 47.83 25.9 49.35 26.02 49.47 27.55 49.58 27.55 49.58 27.55 49.94 27.55 49.94 27.55 49.94 23.2 49.94 23.2 49.94 23.2 49.94 23.2 49.58 23.2 49.58 24.49 49.47 24.73 49.35 24.73 47.83 24.73 47.83 24.73 39.65 24.73 39.65 24.73 39.65 23.9 39.65 23.9 39.65 23.08 39.65 22.61 40 22.37 40.23 22.25 40.58 22.02 40.93 21.9 41.52 21.9 41.52 21.55 41.52 21.55 41.52 21.55 40.7 21.66 39.65 21.66 38.83 21.66 38.83 21.9 38.83 21.9 38.83 22.02 39.06 22.37 39.18 22.72 39.18 22.72 39.18 28.14 39.18 28.14 39.18 28.5 39.18 28.61 39.06 28.85 38.83 28.85 38.83 29.08 38.83 29.08 38.83 29.08 39.53 29.2 40.7 29.32 41.4 29.32 41.4 28.85 41.52 28.85 41.52 28.73 40.93 28.61 40.46 28.26 40.23ZM 15.54 50.17C 13.18 50.17 11.42 47.71 11.42 44.67 11.42 41.87 12.83 38.94 15.77 38.94 17.89 38.94 19.78 41.05 19.78 44.32 19.78 47.95 18.01 50.17 15.54 50.17ZM 15.42 39.53C 13.89 39.53 12.95 41.05 12.95 44.21 12.95 47.36 13.89 49.58 15.89 49.58 17.42 49.58 18.25 48.06 18.25 44.91 18.25 41.4 17.31 39.53 15.42 39.53ZM 5.41 49.58C 6.59 49.47 6.71 49.35 6.71 47.95 6.71 47.95 6.71 44.56 6.71 44.56 6.71 44.56 2.58 44.56 2.58 44.56 2.58 44.56 2.58 47.95 2.58 47.95 2.58 49.35 2.7 49.47 3.64 49.58 3.64 49.58 3.64 49.94 3.64 49.94 3.64 49.94-0.01 49.94-0.01 49.94-0.01 49.94-0.01 49.58-0.01 49.58 1.17 49.47 1.29 49.35 1.29 47.95 1.29 47.95 1.29 41.05 1.29 41.05 1.29 39.88 1.17 39.65-0.01 39.53-0.01 39.53-0.01 39.18-0.01 39.18-0.01 39.18 3.64 39.18 3.64 39.18 3.64 39.18 3.64 39.53 3.64 39.53 2.7 39.65 2.58 39.88 2.58 41.05 2.58 41.05 2.58 43.85 2.58 43.85 2.58 43.85 6.71 43.85 6.71 43.85 6.71 43.85 6.71 41.05 6.71 41.05 6.71 39.88 6.59 39.65 5.53 39.53 5.53 39.53 5.53 39.18 5.53 39.18 5.53 39.18 9.3 39.18 9.3 39.18 9.3 39.18 9.3 39.53 9.3 39.53 8.12 39.65 8 39.88 8 41.05 8 41.05 8 47.95 8 47.95 8 49.35 8.12 49.47 9.3 49.58 9.3 49.58 9.3 49.94 9.3 49.94 9.3 49.94 5.41 49.94 5.41 49.94 5.41 49.94 5.41 49.58 5.41 49.58ZM 36.03 56.6C 36.03 56.6 34.97 56.6 34.97 56.6 34.97 56.6 34.97 59.87 34.97 59.87 34.97 59.87 34.27 59.87 34.27 59.87 34.27 59.87 34.27 56.6 34.27 56.6 34.27 56.6 33.21 56.6 33.21 56.6 33.21 56.6 33.21 55.9 33.21 55.9 33.21 55.9 36.03 55.9 36.03 55.9 36.03 55.9 36.03 56.6 36.03 56.6ZM 38.39 59.87C 38.39 59.87 37.68 59.87 37.68 59.87 37.68 59.87 37.68 59.17 37.68 59.17 37.68 59.17 38.39 59.17 38.39 59.17 38.39 59.17 38.39 59.87 38.39 59.87ZM 42.39 56.02C 42.51 56.02 42.75 56.25 42.86 56.37 42.98 56.6 43.1 56.83 43.1 57.18 43.1 57.42 42.98 57.65 42.98 57.77 42.86 58 42.75 58.12 42.63 58.12 42.51 58.24 42.39 58.35 42.28 58.35 42.16 58.35 41.92 58.47 41.57 58.47 41.57 58.47 41.1 58.47 41.1 58.47 41.1 58.47 41.1 59.87 41.1 59.87 41.1 59.87 40.39 59.87 40.39 59.87 40.39 59.87 40.39 59.87 40.39 59.87 40.39 59.87 40.39 55.9 40.39 55.9 40.39 55.9 41.57 55.9 41.57 55.9 41.92 55.9 42.28 56.02 42.39 56.02ZM 41.1 56.6C 41.1 56.6 41.1 56.6 41.1 56.6 41.1 56.6 41.1 57.77 41.1 57.77 41.1 57.77 41.45 57.77 41.45 57.77 41.8 57.77 41.92 57.77 42.04 57.65 42.16 57.65 42.16 57.53 42.28 57.53 42.28 57.42 42.28 57.3 42.28 57.18 42.28 57.07 42.28 56.95 42.28 56.83 42.16 56.71 42.04 56.71 41.92 56.6 41.81 56.6 41.69 56.6 41.45 56.6 41.45 56.6 41.1 56.6 41.1 56.6ZM 47.93 56.6C 47.93 56.6 46.04 56.6 46.04 56.6 46.04 56.6 46.04 57.53 46.04 57.53 46.04 57.53 47.81 57.53 47.81 57.53 47.81 57.53 47.81 58.12 47.81 58.12 47.81 58.12 46.04 58.12 46.04 58.12 46.04 58.12 46.04 59.29 46.04 59.29 46.04 59.29 47.93 59.29 47.93 59.29 47.93 59.29 47.93 59.87 47.93 59.87 47.93 59.87 45.34 59.87 45.34 59.87 45.34 59.87 45.34 55.9 45.34 55.9 45.34 55.9 47.93 55.9 47.93 55.9 47.93 55.9 47.93 56.6 47.93 56.6ZM 43.57 49.23C 43.93 49.35 44.4 49.47 44.99 49.47 45.69 49.47 46.4 49.35 46.75 48.88 46.99 48.53 47.22 47.95 47.46 47.25 47.46 47.25 47.93 47.36 47.93 47.36 47.81 47.83 47.46 49.47 47.34 49.93 47.34 49.93 40.74 49.93 40.74 49.93 40.74 49.93 40.74 49.58 40.74 49.58 42.04 49.47 42.16 49.35 42.16 47.95 42.16 47.95 42.16 41.05 42.16 41.05 42.16 39.88 42.04 39.64 40.74 39.53 40.74 39.53 40.74 39.18 40.74 39.18 40.74 39.18 44.63 39.18 44.63 39.18 44.63 39.18 44.63 39.53 44.63 39.53 43.34 39.64 43.22 39.88 43.22 41.05 43.22 41.05 43.22 47.95 43.22 47.95 43.22 48.65 43.34 49 43.57 49.23ZM 52.88 56.6C 52.88 56.6 51.81 56.6 51.81 56.6 51.81 56.6 51.81 59.87 51.81 59.87 51.81 59.87 51.11 59.87 51.11 59.87 51.11 59.87 51.11 56.6 51.11 56.6 51.11 56.6 50.17 56.6 50.17 56.6 50.17 56.6 50.17 55.9 50.17 55.9 50.17 55.9 52.88 55.9 52.88 55.9 52.88 55.9 52.88 56.6 52.88 56.6ZM 55.47 47.71C 55.47 47.71 58.41 39.18 58.41 39.18 58.41 39.18 58.77 38.94 58.77 38.94 58.77 38.94 59.59 41.98 59.59 41.98 60.3 44.09 60.89 46.19 61.47 47.83 61.95 49.35 62.18 49.47 63.01 49.58 63.01 49.58 63.01 49.93 63.01 49.93 63.01 49.93 59.47 49.93 59.47 49.93 59.47 49.93 59.47 49.58 59.47 49.58 60.41 49.47 60.53 49.23 60.41 48.65 60.3 48.3 59.83 47.01 59.59 45.96 59.59 45.96 59.59 45.96 59.59 45.96 59.59 45.96 56.76 45.96 56.76 45.96 56.65 46.43 56.29 47.59 56.17 48.3 55.82 49.23 55.94 49.47 57.12 49.58 57.12 49.58 57.12 49.93 57.12 49.93 57.12 49.93 53.94 49.93 53.94 49.93 53.94 49.93 53.94 49.58 53.94 49.58 54.76 49.47 55 49.23 55.47 47.71ZM 59.35 45.38C 59.35 45.38 58.29 41.17 58.29 41.17 58.29 41.17 58.18 41.17 58.18 41.17 57.82 42.57 57.35 43.97 57 45.38 57 45.38 59.35 45.38 59.35 45.38ZM 57.7 56.6C 57.7 56.6 55.82 56.6 55.82 56.6 55.82 56.6 55.82 57.53 55.82 57.53 55.82 57.53 57.59 57.53 57.59 57.53 57.59 57.53 57.59 58.12 57.59 58.12 57.59 58.12 55.82 58.12 55.82 58.12 55.82 58.12 55.82 59.29 55.82 59.29 55.82 59.29 57.82 59.29 57.82 59.29 57.82 59.29 57.82 59.87 57.82 59.87 57.82 59.87 55.11 59.87 55.11 59.87 55.11 59.87 55.11 55.9 55.11 55.9 55.11 55.9 57.7 55.9 57.7 55.9 57.7 55.9 57.7 56.6 57.7 56.6ZM 62.3 56.02C 62.53 56.13 62.65 56.25 62.77 56.48 62.89 56.6 62.89 56.83 62.89 57.07 62.89 57.3 62.77 57.65 62.65 57.77 62.53 58 62.3 58.12 61.95 58.12 62.18 58.24 62.3 58.35 62.3 58.47 62.42 58.59 62.53 58.82 62.77 59.17 62.77 59.17 63.12 59.87 63.12 59.87 63.12 59.87 62.3 59.87 62.3 59.87 62.3 59.87 61.83 59.05 61.83 59.05 61.59 58.7 61.47 58.59 61.47 58.47 61.36 58.35 61.36 58.35 61.24 58.35 61.12 58.24 61 58.24 60.89 58.24 60.89 58.24 60.77 58.24 60.77 58.24 60.77 58.24 60.77 59.87 60.77 59.87 60.77 59.87 60.06 59.87 60.06 59.87 60.06 59.87 60.06 55.9 60.06 55.9 60.06 55.9 61.47 55.9 61.47 55.9 61.94 55.9 62.18 56.02 62.3 56.02ZM 60.77 56.6C 60.77 56.6 60.77 57.65 60.77 57.65 60.77 57.65 61.24 57.65 61.24 57.65 61.59 57.65 61.83 57.65 61.94 57.53 61.94 57.53 62.06 57.53 62.06 57.42 62.18 57.3 62.18 57.18 62.18 57.07 62.18 56.95 62.18 56.83 62.06 56.83 62.06 56.71 61.94 56.6 61.83 56.6 61.71 56.6 61.59 56.6 61.36 56.6 61.36 56.6 60.77 56.6 60.77 56.6ZM 67.72 49.58C 68.78 49.58 69.48 48.77 69.48 47.48 69.48 46.31 68.66 45.61 67.6 44.91 66.66 44.44 65.01 43.5 65.01 41.75 65.01 40.35 66.19 38.94 68.19 38.94 69.01 38.94 69.6 39.18 69.95 39.29 70.07 40 70.19 40.58 70.31 41.4 70.31 41.4 69.84 41.52 69.84 41.52 69.6 40.7 69.13 39.53 67.84 39.53 66.78 39.53 66.19 40.35 66.19 41.17 66.19 42.33 67.01 42.92 68.07 43.62 69.13 44.21 70.66 45.02 70.66 47.01 70.66 48.88 69.37 50.17 67.36 50.17 66.89 50.17 66.3 50.05 66.07 49.93 65.71 49.82 65.36 49.7 65.01 49.58 64.89 49.12 64.77 48.06 64.65 47.13 64.65 47.13 65.01 47.01 65.01 47.01 65.24 47.83 65.95 49.58 67.72 49.58ZM 65.95 59.17C 66.07 59.29 66.3 59.29 66.54 59.29 66.77 59.29 66.89 59.29 67.01 59.17 67.13 59.05 67.13 58.94 67.13 58.82 67.13 58.7 67.13 58.59 67.13 58.47 67.01 58.47 67.01 58.35 66.89 58.35 66.77 58.35 66.54 58.23 66.3 58.23 65.95 58.12 65.71 57.88 65.48 57.77 65.24 57.53 65.24 57.3 65.24 56.95 65.24 56.83 65.24 56.6 65.36 56.36 65.48 56.25 65.6 56.13 65.71 56.01 65.95 55.9 66.18 55.9 66.42 55.9 66.89 55.9 67.25 56.01 67.48 56.25 67.72 56.48 67.72 56.71 67.83 57.07 67.83 57.07 67.13 57.07 67.13 57.07 67.01 56.95 67.01 56.71 66.89 56.71 66.77 56.6 66.66 56.6 66.42 56.6 66.3 56.6 66.07 56.6 65.95 56.71 65.95 56.71 65.83 56.83 65.83 56.95 65.83 57.07 65.95 57.07 65.95 57.18 66.07 57.3 66.3 57.3 66.66 57.42 66.89 57.53 67.25 57.65 67.36 57.77 67.48 57.77 67.6 58 67.72 58.12 67.84 58.35 67.84 58.47 67.84 58.82 67.84 58.94 67.84 59.17 67.72 59.4 67.6 59.64 67.48 59.75 67.25 59.87 67.01 59.99 66.77 59.99 66.54 59.99 66.07 59.99 65.71 59.87 65.48 59.64 65.24 59.4 65.12 59.05 65.01 58.59 65.01 58.59 65.71 58.59 65.71 58.59 65.83 58.82 65.83 59.05 65.95 59.17ZM 72.31 56.02C 72.43 56.02 72.55 56.02 72.66 56.13 72.78 56.25 72.9 56.37 72.9 56.48 73.02 56.6 73.02 56.72 73.02 56.95 73.02 57.18 73.02 57.3 72.9 57.42 72.78 57.65 72.66 57.77 72.55 57.77 72.78 57.89 72.9 58 73.02 58.12 73.13 58.35 73.13 58.59 73.13 58.82 73.13 58.94 73.13 59.17 73.13 59.29 73.02 59.52 72.9 59.64 72.78 59.76 72.66 59.76 72.55 59.87 72.31 59.87 72.19 59.87 71.96 59.87 71.49 59.87 71.49 59.87 70.31 59.87 70.31 59.87 70.31 59.87 70.31 55.9 70.31 55.9 70.31 55.9 71.72 55.9 71.72 55.9 71.96 55.9 72.19 56.02 72.31 56.02ZM 71.01 58.24C 71.01 58.24 71.01 59.29 71.01 59.29 71.01 59.29 71.6 59.29 71.6 59.29 71.84 59.29 72.07 59.29 72.07 59.17 72.19 59.17 72.31 59.17 72.31 59.05 72.43 58.94 72.43 58.82 72.43 58.7 72.43 58.59 72.43 58.47 72.43 58.47 72.31 58.35 72.31 58.24 72.19 58.24 72.08 58.24 71.84 58.24 71.6 58.24 71.6 58.24 71.01 58.24 71.01 58.24 71.01 58.24 71.01 58.24 71.01 58.24ZM 71.01 56.6C 71.01 56.6 71.01 56.6 71.01 56.6 71.01 56.6 71.01 57.53 71.01 57.53 71.01 57.53 71.49 57.53 71.49 57.53 71.72 57.53 71.84 57.53 71.96 57.53 72.07 57.53 72.19 57.42 72.19 57.42 72.31 57.3 72.31 57.18 72.31 57.07 72.31 56.95 72.31 56.83 72.19 56.71 72.19 56.71 72.07 56.6 71.96 56.6 71.96 56.6 71.72 56.6 71.37 56.6 71.37 56.6 71.01 56.6 71.01 56.6ZM 72.66 41.52C 72.78 40.7 72.78 39.65 72.9 38.83 72.9 38.83 73.13 38.83 73.13 38.83 73.25 39.06 73.49 39.18 73.96 39.18 73.96 39.18 79.49 39.18 79.49 39.18 79.85 39.18 79.97 39.06 80.2 38.83 80.2 38.83 80.44 38.83 80.44 38.83 80.44 39.53 80.55 40.7 80.55 41.4 80.55 41.4 80.2 41.52 80.2 41.52 79.97 40.93 79.85 40.46 79.61 40.23 79.38 39.88 78.91 39.65 78.08 39.65 78.08 39.65 77.26 39.65 77.26 39.65 77.26 39.65 77.26 47.83 77.26 47.83 77.26 49.35 77.37 49.47 78.79 49.58 78.79 49.58 78.79 49.94 78.79 49.94 78.79 49.94 74.43 49.94 74.43 49.94 74.43 49.94 74.43 49.58 74.43 49.58 75.84 49.47 75.96 49.35 75.96 47.83 75.96 47.83 75.96 39.65 75.96 39.65 75.96 39.65 75.25 39.65 75.25 39.65 74.31 39.65 73.84 40 73.61 40.23 73.37 40.58 73.25 40.93 73.13 41.52 73.13 41.52 72.66 41.52 72.66 41.52ZM 76.31 55.9C 76.31 55.9 76.31 58.12 76.31 58.12 76.31 58.47 76.31 58.7 76.31 58.82 76.31 58.94 76.43 59.05 76.55 59.17 76.67 59.29 76.78 59.29 77.02 59.29 77.14 59.29 77.37 59.29 77.49 59.17 77.49 59.05 77.61 58.94 77.61 58.82 77.61 58.7 77.61 58.47 77.61 58.12 77.61 58.12 77.61 55.9 77.61 55.9 77.61 55.9 78.32 55.9 78.32 55.9 78.32 55.9 78.32 58 78.32 58 78.32 58.47 78.32 58.82 78.32 59.05 78.2 59.29 78.2 59.4 78.08 59.52 77.96 59.64 77.84 59.76 77.73 59.87 77.49 59.99 77.26 59.99 77.02 59.99 76.67 59.99 76.43 59.99 76.2 59.87 76.08 59.76 75.96 59.64 75.84 59.52 75.72 59.4 75.72 59.17 75.61 59.05 75.61 58.82 75.61 58.47 75.61 58.12 75.61 58.12 75.61 55.9 75.61 55.9 75.61 55.9 75.61 55.9 75.61 55.9 75.61 55.9 76.31 55.9 76.31 55.9ZM 83.15 56.02C 83.38 56.13 83.5 56.25 83.5 56.48 83.62 56.6 83.62 56.83 83.62 57.07 83.62 57.3 83.5 57.65 83.5 57.77 83.38 58 83.15 58.12 82.79 58.12 83.03 58.24 83.15 58.35 83.15 58.47 83.26 58.59 83.38 58.82 83.5 59.17 83.5 59.17 83.85 59.87 83.85 59.87 83.85 59.87 83.15 59.87 83.15 59.87 83.15 59.87 82.68 59.05 82.68 59.05 82.44 58.7 82.32 58.59 82.32 58.47 82.2 58.35 82.2 58.35 82.09 58.35 81.97 58.24 81.85 58.24 81.73 58.24 81.73 58.24 81.61 58.24 81.61 58.24 81.61 58.24 81.61 59.87 81.61 59.87 81.61 59.87 80.91 59.87 80.91 59.87 80.91 59.87 80.91 55.9 80.91 55.9 80.91 55.9 82.32 55.9 82.32 55.9 82.79 55.9 83.03 56.02 83.15 56.02ZM 81.61 56.6C 81.61 56.6 81.61 57.65 81.61 57.65 81.61 57.65 82.09 57.65 82.09 57.65 82.44 57.65 82.67 57.65 82.79 57.53 82.79 57.53 82.91 57.53 82.91 57.42 83.03 57.3 83.03 57.18 83.03 57.07 83.03 56.95 83.03 56.83 82.91 56.83 82.91 56.71 82.79 56.6 82.67 56.6 82.56 56.6 82.44 56.6 82.2 56.6 82.2 56.6 81.61 56.6 81.61 56.6ZM 86.91 56.13C 87.03 55.9 87.39 55.9 87.74 55.9 88.09 55.9 88.45 56.02 88.68 56.13 88.92 56.37 89.15 56.72 89.15 57.07 89.15 57.07 88.45 57.18 88.45 57.18 88.45 56.95 88.33 56.83 88.21 56.72 88.09 56.6 87.86 56.6 87.74 56.6 87.39 56.6 87.15 56.72 86.91 56.95 86.8 57.07 86.68 57.42 86.68 57.89 86.68 58.35 86.8 58.7 86.91 58.94 87.15 59.17 87.39 59.29 87.74 59.29 87.86 59.29 87.97 59.29 88.09 59.17 88.33 59.17 88.45 59.05 88.45 58.94 88.45 58.94 88.45 58.47 88.45 58.47 88.45 58.47 87.74 58.47 87.74 58.47 87.74 58.47 87.74 57.77 87.74 57.77 87.74 57.77 89.27 57.77 89.27 57.77 89.27 57.77 89.27 59.4 89.27 59.4 89.03 59.52 88.8 59.64 88.56 59.76 88.33 59.87 87.97 59.99 87.74 59.99 87.39 59.99 87.03 59.87 86.8 59.76 86.56 59.52 86.32 59.29 86.21 58.94 86.09 58.7 85.97 58.35 85.97 57.89 85.97 57.53 86.09 57.18 86.21 56.83 86.32 56.48 86.56 56.25 86.91 56.13Z" fill="rgb(255,255,255)"/></svg>