<?xml version="1.0" encoding="utf-8"?>
<svg xmlns="http://www.w3.org/2000/svg"
	xmlns:xlink="http://www.w3.org/1999/xlink"
	width="117px" height="53px" viewBox="0 0 117 53">
<path fillRule="evenodd" d="M 113.52 48.84C 113.52 48.84 110.06 48.84 110.06 48.84 110.06 48.84 110.06 52.5 110.06 52.5 110.06 52.5 108.41 52.5 108.41 52.5 108.41 52.5 108.41 43.33 108.41 43.33 108.41 43.33 113.7 43.33 113.7 43.33 116.27 43.33 117 44.1 117 46.19 117 48.34 115.65 48.84 113.52 48.84ZM 114.09 44.79C 114.09 44.79 110.06 44.79 110.06 44.79 110.06 44.79 110.06 47.26 110.06 47.26 110.06 47.26 114.08 47.26 114.08 47.26 115.23 47.26 115.31 46.55 115.31 46.14 115.31 45.73 115.27 44.79 114.09 44.79ZM 103.38 52.8C 102.48 52.8 100.77 52.69 99.9 51.78 99.43 51.28 99.19 50.36 99.19 49.58 99.19 49.58 99.19 43.35 99.19 43.35 99.19 43.35 100.87 43.35 100.87 43.35 100.87 43.35 100.87 48.98 100.87 48.98 100.87 50.38 101.09 51.06 103.4 51.06 105.33 51.06 105.89 50.5 105.89 48.94 105.89 48.94 105.89 43.35 105.89 43.35 105.89 43.35 107.62 43.35 107.62 43.35 107.62 43.35 107.62 49.58 107.62 49.58 107.62 51.81 106.24 52.8 103.38 52.8ZM 93.97 52.74C 89.93 52.74 88.95 52.13 88.95 48.08 88.95 47.51 88.98 46.81 89.1 46.09 89.49 43.5 91.02 43.31 93.79 43.31 97.75 43.31 98.41 44.35 98.41 48.09 98.41 51.36 98.15 52.74 93.97 52.74ZM 93.79 44.84C 90.94 44.84 90.73 45.45 90.73 48.14 90.73 50.89 91 51.21 93.95 51.21 96.78 51.21 96.84 50.47 96.84 48.09 96.84 45.4 96.58 44.84 93.79 44.84ZM 82.79 38.73C 82.79 38.73 64.74 15.98 64.74 15.98 64.74 15.98 82.48 15.98 82.48 15.98 82.48 15.98 85.33 15.98 85.33 12.03 85.33 8.08 82.32 8.56 82.32 8.56 82.32 8.56 59.35 8.56 59.35 8.56 59.35 8.56 59.35 28.47 59.35 28.47 59.35 28.47 60.62 39.37 40.82 39.37 21.02 39.37 22.13 29.73 22.13 29.73 22.13 29.73 22.13 16.3 22.13 16.3 22.13 16.3 22.13 16.3 22.13 16.3 22.13 16.3 31.16 16.3 31.16 16.3 31.16 16.3 31.16 26.72 31.16 26.72 31.16 26.72 29.89 30.68 40.51 30.68 51.12 30.68 50.17 26.88 50.17 26.88 50.17 26.88 50.17 0.02 50.17 0.02 50.17 0.02 84.38 0.02 84.38 0.02 84.38 0.02 94.35-1.24 94.35 12.03 94.35 25.3 85.49 24.35 85.49 24.35 85.49 24.35 82.96 24.35 82.96 24.35 82.96 24.35 95.15 38.73 95.15 38.73 95.15 38.73 82.79 38.73 82.79 38.73ZM 16.73 51.44C 16.73 51.44 16.73 50.63 16.73 50.63 16.73 49.3 15.57 49.3 14.76 49.3 14.76 49.3 11.32 49.3 11.32 49.3 11.32 49.3 11.32 52.91 11.32 52.91 11.32 52.91 9.73 52.91 9.73 52.91 9.73 52.91 9.73 43.55 9.73 43.55 9.73 43.55 15.36 43.55 15.36 43.55 17.4 43.55 18.29 44.52 18.29 46.07 18.29 46.79 18.49 47.98 16.93 48.38 18.18 48.61 18.31 49.42 18.31 50.36 18.31 50.36 18.39 52.91 18.39 52.91 18.39 52.91 16.84 52.91 16.84 52.91 16.84 52.91 16.73 51.62 16.73 51.44ZM 14.95 45.19C 14.95 45.19 11.32 45.19 11.32 45.19 11.32 45.19 11.32 47.74 11.32 47.74 11.32 47.74 14.9 47.74 14.9 47.74 15.8 47.74 16.69 47.61 16.69 46.55 16.69 45.48 16.04 45.19 14.95 45.19ZM 4.08 53C 0.56 53 0 52.01 0 49.09 0 49.09 0 48.66 0 48.66 0 48.66 1.69 48.66 1.69 48.66 1.69 48.66 1.69 49.17 1.69 49.17 1.69 50.49 1.69 51.37 4.05 51.37 5.77 51.37 6.35 51.12 6.35 49.56 6.35 49.56 6.35 43.55 6.35 43.55 6.35 43.55 8.02 43.55 8.02 43.55 8.02 43.55 8.02 43.55 8.02 43.55 8.02 43.55 8.02 50.03 8.02 50.03 8.02 52.47 6.43 53 4.08 53ZM 24.74 47.23C 24.74 47.23 29.89 47.23 29.89 47.23 29.89 47.23 29.89 43.55 29.89 43.55 29.89 43.55 31.55 43.55 31.55 43.55 31.55 43.55 31.55 52.91 31.55 52.91 31.55 52.91 29.89 52.91 29.89 52.91 29.89 52.91 29.89 48.73 29.89 48.73 29.89 48.73 24.74 48.73 24.74 48.73 24.74 48.73 24.74 52.91 24.74 52.91 24.74 52.91 23.08 52.91 23.08 52.91 23.08 52.91 23.08 43.55 23.08 43.55 23.08 43.55 24.74 43.55 24.74 43.55 24.74 43.55 24.74 47.23 24.74 47.23ZM 37.44 43.46C 41.36 43.46 42.01 44.5 42.01 48.25 42.01 51.51 41.75 52.89 37.62 52.89 33.62 52.89 32.65 52.28 32.65 48.23 32.65 47.66 32.67 46.97 32.8 46.24 33.19 43.65 34.7 43.46 37.44 43.46ZM 37.59 51.37C 40.39 51.37 40.47 50.63 40.47 48.25 40.47 45.55 40.2 44.99 37.44 44.99 34.62 44.99 34.41 45.61 34.41 48.29 34.41 51.05 34.67 51.37 37.59 51.37ZM 51.39 44.9C 51.39 44.9 47.8 44.9 47.8 44.9 47.8 44.9 47.8 52.78 47.8 52.78 47.8 52.78 46.13 52.78 46.13 52.78 46.13 52.78 46.13 44.9 46.13 44.9 46.13 44.9 42.52 44.9 42.52 44.9 42.52 44.9 42.52 43.35 42.52 43.35 42.52 43.35 51.39 43.35 51.39 43.35 51.39 43.35 51.39 44.9 51.39 44.9ZM 60.18 45.04C 60.18 45.04 53.93 45.04 53.93 45.04 53.93 45.04 53.93 47.04 53.93 47.04 53.93 47.04 59.4 47.04 59.4 47.04 59.4 47.04 59.4 48.75 59.4 48.75 59.4 48.75 53.93 48.75 53.93 48.75 53.93 48.75 53.93 51.1 53.93 51.1 53.93 51.1 60.29 51.1 60.29 51.1 60.29 51.1 60.29 52.64 60.29 52.64 60.29 52.64 52.26 52.64 52.26 52.64 52.26 52.64 52.26 43.35 52.26 43.35 52.26 43.35 60.18 43.35 60.18 43.35 60.18 43.35 60.18 45.04 60.18 45.04ZM 62.77 51.16C 62.77 51.16 68.49 51.16 68.49 51.16 68.49 51.16 68.49 52.64 68.49 52.64 68.49 52.64 61.09 52.64 61.09 52.64 61.09 52.64 61.09 43.55 61.09 43.55 61.09 43.55 62.77 43.55 62.77 43.55 62.77 43.55 62.77 51.16 62.77 51.16ZM 74.23 43.24C 76.43 43.24 79.08 43.64 78.88 46.63 78.88 46.63 77.2 46.63 77.2 46.63 77.2 46.63 77.2 46.63 77.2 46.63 77.22 45.57 76.69 45.21 76.07 45.04 75.53 44.91 74.64 44.87 74.07 44.87 71.36 44.87 71.21 45.5 71.21 48.49 71.21 50.39 71.53 51.14 73.29 51.14 73.6 51.14 74.01 51.19 74.3 51.19 75.23 51.19 76.16 51.22 76.61 50.83 76.97 50.52 77.14 50.4 77.14 49.75 77.14 49.75 77.14 49.1 77.14 49.1 77.14 49.1 74.16 49.1 74.16 49.1 74.16 49.1 74.16 47.52 74.16 47.52 74.16 47.52 78.93 47.52 78.93 47.52 78.93 47.52 78.93 48.36 78.93 48.36 78.93 49.7 78.93 51.06 77.99 51.85 77.2 52.51 76.36 52.74 74.4 52.74 72.08 52.74 70.85 52.44 70.13 51.48 69.61 50.79 69.33 50.32 69.33 48.4 69.33 44.24 69.87 43.24 74.23 43.24ZM 88.11 45.82C 88.11 46.54 88.31 47.73 86.76 48.12 88 48.35 88.14 49.16 88.14 50.1 88.14 50.1 88.21 52.66 88.21 52.66 88.21 52.66 86.66 52.66 86.66 52.66 86.66 52.66 86.56 51.36 86.56 51.18 86.56 51.18 86.56 50.38 86.56 50.38 86.56 49.04 85.4 49.05 84.58 49.05 84.58 49.05 81.15 49.05 81.15 49.05 81.15 49.05 81.15 52.66 81.15 52.66 81.15 52.66 79.56 52.66 79.56 52.66 79.56 52.66 79.56 43.3 79.56 43.3 79.56 43.3 79.56 43.3 79.56 43.3 79.56 43.3 85.18 43.3 85.18 43.3 87.22 43.3 88.11 44.27 88.11 45.82ZM 81.15 44.94C 81.15 44.94 81.15 47.48 81.15 47.48 81.15 47.48 84.72 47.48 84.72 47.48 85.62 47.48 86.51 47.36 86.51 46.29 86.51 45.23 85.86 44.94 84.77 44.94 84.77 44.94 81.15 44.94 81.15 44.94Z" fill="rgb(255,255,255)"/></svg>