<?xml version="1.0" encoding="utf-8"?>
<svg xmlns="http://www.w3.org/2000/svg"
	xmlns:xlink="http://www.w3.org/1999/xlink"
	width="92px" height="60px" viewBox="0 0 92 60">
<path fillRule="evenodd" d="M 87.55 59.96C 86.04 58.91 87.85 58.5 87.85 58.5 89.31 59.67 90.28 57.41 90.28 57.41 93.51 50.67 82.64 45.39 82.64 45.39 81.05 48.32 77.19 48.95 77.19 48.95 76.14 49.16 75.14 49.16 74.25 49.12 72.74 48.95 71.49 48.53 70.61 48.11 70.14 47.9 69.81 47.69 69.56 47.53 69.39 47.44 69.3 47.36 69.3 47.36 68.8 47.86 68.13 48.2 67.42 48.45 64.65 49.33 60.87 48.74 60.87 48.74 60.75 48.7 60.58 48.66 60.45 48.57 51.98 45.73 54.79 38.9 54.79 38.9 37.26 38.9 24.42 45.18 24.42 45.18 23.2 45.52 20.27 46.86 17.16 48.32 12.67 50.46 7.85 52.89 7.85 52.89 6.88 53.31 6.09 53.47 5.37 53.43 3.02 53.35 2.1 51.29 2.1 51.29 0.05 47.9 3.07 44.26 5.37 42.17 6.55 41.08 7.51 40.41 7.51 40.41 10.07 38.36 9.53 36.68 9.53 36.68 9.53 36.68 9.53 27.51 9.53 27.51 7.89 27.39 6.51 27.14 5.37 26.8-0.33 25.04 0 20.77 0 20.77 0 17.34 2.82 15.87 5.37 15.25 7.56 14.74 9.53 14.83 9.52 14.83 9.52 14.83 9.52 3.94 9.52 3.94 9.52 2.19 5.92 3.02 5.92 3.02 5.92 3.02 6 1.85 6 1.85 9.78 1.14 13.8 1.35 17.16 2.56 22.36 4.45 26.01 8.72 25 15.92 23.83 21.44 20.22 24.29 17.16 25.76 14.6 26.97 12.38 27.22 12.38 27.22 12.38 27.22 12.33 36.35 12.33 36.35 12.42 38.15 15.36 36.47 15.36 36.47 15.9 36.22 16.53 36.01 17.16 35.81 18.8 35.22 20.35 34.8 20.35 34.8 20.35 34.8 20.94 35.55 20.94 35.55 19.59 35.97 18.33 36.43 17.16 36.89 10.99 39.4 7.13 42.46 5.37 44.09 4.58 44.81 4.2 45.27 4.2 45.27 1.22 47.99 3.15 50.75 3.15 50.75 3.65 51.8 4.49 52.18 5.37 52.22 6.92 52.3 8.64 51.3 8.64 51.3 9.94 50.54 13.89 48.66 17.16 47.19 19.8 45.98 21.98 44.97 21.98 44.97 40.23 36.68 55.21 37.56 55.21 37.56 57.43 35.89 59.36 35.68 60.45 35.76 61.04 35.8 61.38 35.93 61.38 35.93 63.68 35.93 65.11 38.57 65.11 38.57 65.61 38.57 66.87 38.57 66.87 38.57 67 38.27 67.21 37.98 67.42 37.77 68.09 37.02 68.93 36.6 69.56 36.39 70.1 36.22 70.48 36.18 70.48 36.18 70.44 35.43 70.06 34.63 69.56 33.84 68.88 32.75 68 31.74 67.42 31.16 67.04 30.78 66.79 30.57 66.79 30.57 66.33 30.24 64.35 28.27 64.35 28.27 60.2 23.7 61.92 19.69 61.92 19.69 63.47 16.8 65.74 16.75 67.42 17.3 68.42 17.63 69.26 18.18 69.56 18.39 69.64 18.43 69.72 18.47 69.72 18.47 70.02 19.02 70.35 18.81 70.6 18.47 70.86 18.18 71.02 17.72 71.02 17.72 71.02 17.72 71.74 17.84 71.74 17.84 71.74 17.84 71.74 22.7 71.74 22.7 71.74 22.7 71.11 22.7 71.11 22.7 70.94 22.32 70.77 21.99 70.6 21.65 70.27 21.03 69.93 20.52 69.56 20.19 68.76 19.27 68.05 19.06 68.05 19.06 67.79 18.89 67.58 18.81 67.42 18.72 65.53 18.09 64.9 19.94 64.9 19.94 64.06 21.78 65.91 24.67 67.42 26.59 68.3 27.72 69.09 28.52 69.09 28.52 69.26 28.69 69.43 28.81 69.56 28.98 69.93 29.31 70.31 29.69 70.6 30.07 72.74 32.79 73.46 36.18 73.46 36.18 73.75 36.22 74 36.31 74.25 36.39 77.82 37.48 77.06 41.33 77.06 41.33 78.66 41.75 81.85 43.38 81.85 43.38 85.12 36.51 77.9 30.44 77.9 30.44 76.44 29.19 75.01 27.22 74.25 26.17 73.92 25.71 73.75 25.42 73.75 25.42 72.16 22.03 73.16 19.77 74.25 18.47 74.97 17.63 75.68 17.26 75.68 17.26 78.45 16.21 80.97 18.64 80.97 18.64 81.8 19.68 82.22 17.59 82.22 17.59 82.22 17.59 83.11 17.59 83.11 17.59 83.11 17.59 83.11 23.08 83.11 23.08 83.11 23.08 82.27 22.99 82.27 22.99 81.39 19.68 79.29 19.1 79.29 19.1 75.14 17.46 76.52 22.99 76.52 22.99 76.86 25 82.85 31.2 82.85 31.2 87.64 37.1 83.86 44.51 83.86 44.51 91.45 48.74 92 53.26 92 53.26 92 53.26 92 53.3 92 53.35 92 53.35 92 55.15 92 55.15 91.62 60.76 87.55 59.96 87.55 59.96ZM 5.37 16.38C 3.49 16.84 1.6 17.88 1.22 20.27 1.22 20.27 0.89 24 5.37 25.55 6.42 25.88 7.76 26.13 9.49 26.17 9.49 26.17 9.53 16.13 9.53 16.13 9.53 16.13 7.47 15.88 5.37 16.38ZM 12.38 25.76C 14.35 25.34 15.94 24.58 17.16 23.66 22.07 20.06 21.99 13.91 21.99 13.91 21.94 8.84 19.55 6.16 17.16 4.78 14.85 3.4 12.59 3.23 12.59 3.23 12.59 3.23 12.5 15.04 12.5 15.04 16.15 16.13 16.95 17.51 16.95 17.51 17.04 17.63 17.12 17.72 17.16 17.8 18.29 19.43 17.83 20.27 17.16 20.73 16.53 21.15 15.73 21.19 15.73 21.19 14.27 20.35 15.73 19.85 15.73 19.85 19.05 18.14 12.38 16.42 12.38 16.42 12.38 16.42 12.38 25.76 12.38 25.76ZM 60.45 36.77C 60.29 36.77 60.12 36.81 59.91 36.81 59.91 36.81 58.61 36.6 57.27 37.73 57.27 37.73 58.82 37.81 60.45 37.94 61.71 38.02 62.97 38.15 63.6 38.27 63.6 38.27 62.93 36.68 60.45 36.77ZM 65.95 39.78C 65.95 39.78 65.49 39.74 65.49 39.74 65.49 39.74 65.74 42.96 63.39 43.59 63.39 43.59 61.54 44.43 60.45 43.09 60.37 42.96 60.29 42.84 60.2 42.71 60.2 42.71 60.03 41.92 60.45 41.96 60.54 42 60.71 42.08 60.87 42.21 60.87 42.21 64.69 43.8 64.14 39.45 64.14 39.45 62.72 39.15 60.45 38.99 59.19 38.94 57.73 38.9 56.09 38.94 56.09 38.94 53.83 43.34 58.19 46.31 58.19 46.31 59.11 46.86 60.45 47.28 62.42 47.95 65.28 48.36 67.42 46.52 67.54 46.4 67.71 46.27 67.84 46.1 67.84 46.1 67.67 45.94 67.42 45.68 66.66 44.85 65.36 42.84 65.95 39.78ZM 67.21 40.07C 67.21 40.07 66.54 41.83 67.42 43.67 67.71 44.35 68.21 45.02 69.01 45.6 69.01 45.6 69.26 45.27 69.56 44.72 69.93 44.09 70.35 43.21 70.61 42.21 70.73 41.75 70.81 41.25 70.81 40.74 70.81 40.74 70.73 40.74 70.61 40.7 70.4 40.66 70.02 40.54 69.56 40.45 68.8 40.24 67.88 40.07 67.42 40.07 67.33 40.07 67.25 40.07 67.21 40.07ZM 70.69 37.31C 70.65 37.31 70.65 37.31 70.61 37.31 70.23 37.4 69.89 37.48 69.56 37.65 68.55 38.11 68.05 38.9 68.05 38.9 68.51 38.9 69.05 39.03 69.56 39.11 69.98 39.2 70.35 39.32 70.61 39.36 70.9 39.45 71.11 39.53 71.11 39.53 71.11 38.15 70.69 37.31 70.69 37.31ZM 73.25 41.46C 73.25 41.46 73.25 42 73.04 42.38 72.87 42.54 73.54 42.84 74.25 42.8 74.67 42.75 75.14 42.54 75.47 42.17 75.47 42.17 74.88 41.83 74.25 41.62 73.88 41.5 73.5 41.41 73.25 41.46ZM 74.25 37.73C 73.88 37.6 73.58 37.56 73.58 37.56 73.79 38.94 73.54 40.2 73.54 40.2 73.67 40.24 73.96 40.28 74.25 40.37 74.97 40.54 75.81 40.74 75.81 40.74 76.14 38.82 75.01 38.02 74.25 37.73ZM 76.73 42.5C 76.02 43.63 75.05 43.88 74.25 43.84 73.29 43.76 72.49 43.26 72.49 43.26 72.49 44.14 71.15 45.73 70.61 46.31 70.48 46.44 70.4 46.52 70.4 46.52 70.48 46.56 70.52 46.65 70.61 46.69 71.7 47.48 73.16 47.74 74.25 47.82 75.05 47.86 75.6 47.82 75.6 47.82 79.04 47.82 81.18 44.72 81.18 44.72 79.71 43.67 76.73 42.5 76.73 42.5ZM 61.38 15.12C 61.38 15.12 61.46 15.12 61.46 15.12 61.59 15.12 61.71 15.08 61.75 15.04 61.8 15 61.8 14.87 61.8 14.7 61.8 14.7 61.8 10.47 61.8 10.47 61.8 10.31 61.8 10.18 61.75 10.14 61.71 10.1 61.59 10.05 61.46 10.05 61.46 10.05 61.38 10.05 61.38 10.05 61.38 10.05 61.38 9.89 61.38 9.89 61.38 9.89 61.5 9.89 61.5 9.89 61.63 9.89 61.75 9.89 61.92 9.89 62.05 9.84 62.22 9.84 62.38 9.84 62.38 9.84 62.38 14.7 62.38 14.7 62.38 14.87 62.42 14.99 62.47 15.04 62.51 15.08 62.59 15.12 62.72 15.12 62.72 15.12 62.8 15.12 62.8 15.12 62.8 15.12 62.8 15.29 62.8 15.29 62.8 15.29 61.38 15.29 61.38 15.29 61.38 15.29 61.38 15.12 61.38 15.12ZM 59.41 13.66C 59.41 14.2 59.49 14.58 59.57 14.83 59.66 15 59.78 15.12 59.91 15.16 59.99 15.16 60.03 15.2 60.08 15.2 60.28 15.2 60.45 15.12 60.58 14.91 60.75 14.74 60.83 14.49 60.87 14.16 60.87 14.16 61.08 14.16 61.08 14.16 61 14.58 60.87 14.87 60.7 15.08 60.49 15.29 60.28 15.41 59.99 15.41 59.95 15.41 59.95 15.41 59.91 15.41 59.57 15.37 59.32 15.21 59.11 14.87 58.86 14.49 58.73 13.99 58.73 13.41 58.73 12.82 58.86 12.36 59.07 11.98 59.32 11.56 59.57 11.4 59.91 11.4 60.24 11.4 60.54 11.56 60.75 11.9 60.96 12.27 61.04 12.74 61.04 13.32 61.04 13.32 61.04 13.36 61.04 13.36 61.04 13.36 59.91 13.36 59.91 13.36 59.91 13.36 59.41 13.36 59.41 13.36 59.41 13.41 59.41 13.45 59.41 13.53 59.41 13.57 59.41 13.61 59.41 13.66ZM 59.91 13.15C 59.91 13.15 60.41 13.15 60.41 13.15 60.41 13.15 60.41 13.07 60.41 13.03 60.41 12.94 60.41 12.9 60.41 12.86 60.41 12.4 60.37 12.06 60.29 11.85 60.2 11.65 60.08 11.56 59.91 11.56 59.74 11.56 59.61 11.65 59.53 11.85 59.45 12.06 59.4 12.4 59.4 12.94 59.4 12.94 59.4 13.15 59.4 13.15 59.4 13.15 59.91 13.15 59.91 13.15ZM 57.73 14.41C 57.73 14.66 57.73 14.79 57.77 14.91 57.81 15 57.85 15.04 57.94 15.04 58.02 15.04 58.1 14.95 58.14 14.87 58.19 14.74 58.19 14.54 58.19 14.28 58.19 14.28 58.19 14.2 58.19 14.2 58.19 14.2 58.35 14.2 58.35 14.2 58.35 14.2 58.35 14.37 58.35 14.37 58.35 14.7 58.31 14.95 58.19 15.12 58.1 15.29 57.94 15.41 57.73 15.41 57.52 15.41 57.35 15.29 57.26 15.12 57.18 14.91 57.1 14.58 57.1 14.12 57.1 14.12 57.1 11.77 57.1 11.77 57.1 11.77 56.68 11.77 56.68 11.77 56.68 11.77 56.68 11.48 56.68 11.48 56.93 11.44 57.14 11.31 57.27 11.06 57.43 10.81 57.52 10.47 57.52 10.01 57.52 10.01 57.73 10.01 57.73 10.01 57.73 10.01 57.73 11.48 57.73 11.48 57.73 11.48 58.36 11.48 58.36 11.48 58.36 11.48 58.36 11.77 58.36 11.77 58.36 11.77 57.73 11.77 57.73 11.77 57.73 11.77 57.73 14.41 57.73 14.41ZM 55.17 15.37C 55.13 15.37 55.13 15.37 55.13 15.37 54.83 15.37 54.54 15.2 54.29 14.79 54.04 14.41 53.91 13.95 53.91 13.4 53.91 12.82 54.03 12.36 54.29 11.98 54.54 11.6 54.83 11.39 55.13 11.39 55.13 11.39 55.13 11.39 55.17 11.39 55.46 11.39 55.76 11.6 56.01 11.98 56.26 12.36 56.38 12.82 56.38 13.4 56.38 13.95 56.26 14.41 56.01 14.79 55.76 15.2 55.46 15.37 55.17 15.37ZM 55.59 11.98C 55.5 11.69 55.34 11.56 55.17 11.56 55.13 11.56 55.13 11.56 55.13 11.56 54.92 11.56 54.79 11.69 54.71 11.94 54.62 12.23 54.58 12.69 54.58 13.4 54.58 14.07 54.62 14.58 54.71 14.83 54.79 15.08 54.92 15.2 55.13 15.2 55.13 15.2 55.13 15.2 55.17 15.2 55.34 15.2 55.5 15.08 55.59 14.83 55.67 14.54 55.71 14.07 55.71 13.4 55.71 12.69 55.67 12.23 55.59 11.98ZM 51.77 15.12C 51.77 15.12 51.98 15.12 51.98 15.12 52.15 15.12 52.27 15.08 52.31 15.04 52.36 14.95 52.4 14.87 52.4 14.66 52.4 14.66 52.4 12.36 52.4 12.36 52.4 12.36 50.93 12.36 50.93 12.36 50.93 12.36 50.93 14.66 50.93 14.66 50.93 14.66 50.93 14.66 50.93 14.66 50.93 14.87 50.93 15 50.97 15.04 51.01 15.08 51.14 15.12 51.31 15.12 51.31 15.12 51.52 15.12 51.52 15.12 51.52 15.12 51.52 15.29 51.52 15.29 51.52 15.29 49.67 15.29 49.67 15.29 49.67 15.29 49.67 15.12 49.67 15.12 49.67 15.12 49.88 15.12 49.88 15.12 50.05 15.12 50.13 15.08 50.22 15.04 50.26 14.95 50.26 14.87 50.26 14.66 50.26 14.66 50.26 10.47 50.26 10.47 50.26 10.31 50.26 10.18 50.22 10.14 50.13 10.05 50.05 10.05 49.88 10.05 49.88 10.05 49.67 10.05 49.67 10.05 49.67 10.05 49.67 9.89 49.67 9.89 49.67 9.89 51.52 9.89 51.52 9.89 51.52 9.89 51.52 10.05 51.52 10.05 51.52 10.05 51.31 10.05 51.31 10.05 51.14 10.05 51.01 10.05 50.97 10.14 50.93 10.18 50.93 10.31 50.93 10.47 50.93 10.47 50.93 12.06 50.93 12.06 50.93 12.06 52.4 12.06 52.4 12.06 52.4 12.06 52.4 10.47 52.4 10.47 52.4 10.31 52.36 10.18 52.32 10.14 52.27 10.05 52.15 10.05 51.98 10.05 51.98 10.05 51.77 10.05 51.77 10.05 51.77 10.05 51.77 9.89 51.77 9.89 51.77 9.89 53.62 9.89 53.62 9.89 53.62 9.89 53.62 10.05 53.62 10.05 53.62 10.05 53.41 10.05 53.41 10.05 53.24 10.05 53.15 10.05 53.11 10.14 53.03 10.18 53.03 10.31 53.03 10.47 53.03 10.47 53.03 14.66 53.03 14.66 53.03 14.87 53.03 14.95 53.11 15.04 53.15 15.08 53.24 15.12 53.41 15.12 53.41 15.12 53.62 15.12 53.62 15.12 53.62 15.12 53.62 15.29 53.62 15.29 53.62 15.29 51.77 15.29 51.77 15.29 51.77 15.29 51.77 15.12 51.77 15.12ZM 55.88 33.08C 56.22 33.25 56.55 33.38 56.85 33.42 59.57 33.96 60.66 30.11 60.66 30.11 60.66 30.11 61.46 30.15 61.46 30.15 60.71 34 58.57 34.72 56.85 34.63 55.59 34.59 54.58 34.13 54.58 34.13 51.31 32.37 51.43 27.51 51.43 27.51 51.52 20.06 56.38 20.02 56.38 20.02 56.55 20.02 56.68 20.02 56.85 20.02 62.09 20.56 62.09 27.51 62.09 27.51 62.09 27.51 56.85 27.56 56.85 27.56 56.85 27.56 54.08 27.56 54.08 27.56 54.29 32.25 55.88 33.08 55.88 33.08ZM 54.2 26.51C 54.2 26.51 56.85 26.51 56.85 26.51 56.85 26.51 59.45 26.47 59.45 26.47 59.45 26.47 59.87 22.07 56.85 21.57 56.72 21.57 56.64 21.53 56.51 21.53 56.51 21.53 53.99 21.4 54.2 26.51ZM 50.6 19.94C 50.6 19.94 51.31 19.94 51.31 19.94 51.31 19.94 51.22 24.08 51.22 24.08 51.22 24.08 50.55 24.08 50.55 24.08 50.13 21.82 48.75 21.61 48.75 21.61 45.77 20.77 45.6 27.97 45.6 27.97 45.52 32.12 47.49 33.33 47.49 33.33 50.13 35.01 50.76 30.15 50.76 30.15 50.76 30.15 51.52 30.15 51.52 30.15 51.39 33.08 49.59 34.17 49.59 34.17 46.15 36.6 43.63 32.24 43.63 32.24 41.2 25.55 44.47 21.4 44.47 21.4 46.74 19.18 48.58 20.35 48.58 20.35 49.5 21.07 50.47 21.28 50.47 21.28 50.47 21.28 50.6 19.94 50.6 19.94ZM 42.37 16C 41.54 16.25 40.65 16.38 39.73 16.25 39.73 16.25 39.06 16.42 38.77 16.75 38.77 16.75 38.14 16.42 38.14 16.42 38.14 16.42 38.31 16.13 38.31 16.13 38.31 16.13 38.18 16.13 38.05 16.13 37.59 16.08 36.63 15.96 36.33 15.71 36.33 15.71 36.33 17.38 36.33 17.38 36.33 17.38 36.71 18.05 37.05 17.17 37.05 17.17 37.68 17.59 37.68 17.59 37.68 17.59 37.47 18.22 36.71 18.43 36.71 18.43 36 18.85 35.29 19.85 35.29 19.85 34.7 20.56 33.9 20.86 33.9 20.86 33.9 20.27 33.9 20.27 33.9 20.27 35.07 19.52 35.07 17.8 35.07 17.8 35.07 14.83 35.07 14.83 35.07 14.83 32.18 13.36 32.81 10.18 32.81 10.18 33.56 10.18 33.56 10.18 33.56 10.18 33.44 12.86 35.07 13.57 35.07 13.57 35.03 10.93 35.03 10.93 35.03 10.93 31.55 9.39 32.47 4.78 32.47 4.78 33.35 1.14 38.05 0.22 38.56 0.13 39.1 0.09 39.69 0.05 39.69 0.05 40.86 0.01 42.37 0.51 44.09 1.05 46.23 2.27 47.62 4.99 47.62 4.99 49.84 11.23 45.44 14.54 45.44 14.54 44.09 15.5 42.37 16ZM 40.78 10.31C 41.45 10.14 41.95 9.89 42.37 9.6 43.97 8.38 43.97 6.5 43.97 6.5 43.8 4.82 43.09 3.94 42.37 3.52 41.53 3.02 40.74 3.1 40.74 3.1 40.74 3.1 40.78 10.31 40.78 10.31ZM 42.37 1.6C 41.95 1.47 41.58 1.35 41.16 1.3 41.16 1.3 39.69 1.09 38.05 1.39 36.54 1.64 34.82 2.31 33.86 3.94 33.86 3.94 32.18 7.04 34.95 9.8 34.95 9.8 34.95 5.03 34.95 5.03 34.95 5.03 34.19 5.03 34.19 5.03 34.19 5.03 34.11 4.28 34.11 4.28 34.11 4.28 37.38 4.28 37.38 4.28 37.38 4.28 37.46 5.03 37.46 5.03 37.46 5.03 36.5 4.99 36.5 4.99 36.5 4.99 36.54 10.52 36.54 10.52 36.54 10.52 37.3 10.73 38.05 10.81 38.64 10.89 39.18 10.85 39.39 10.6 39.39 10.6 39.39 3.23 39.39 3.23 39.39 3.23 38.05 3.23 38.05 3.23 38.05 3.23 37.93 3.23 37.93 3.23 37.93 3.23 38.05 2.85 38.05 2.85 38.05 2.85 38.22 2.27 38.22 2.27 38.22 2.27 40.44 1.93 42.37 2.6 43.13 2.9 43.84 3.36 44.34 4.07 44.34 4.07 46.99 7.75 43.21 10.43 43.21 10.43 42.83 10.68 42.37 10.93 41.74 11.23 41.07 11.6 40.86 11.69 40.86 11.69 40.86 14.41 40.86 14.41 40.86 14.41 41.2 14.83 41.91 14.2 41.91 14.2 42.08 14.12 42.37 13.99 42.71 13.82 43.25 13.53 43.63 13.15 43.63 13.15 44.34 13.49 44.34 13.49 44.34 13.49 43.3 14.37 42.37 14.79 42.08 14.91 41.79 14.99 41.53 15.04 41.53 15.04 40.86 15.71 41.62 15.5 41.87 15.5 42.12 15.46 42.37 15.41 48.41 14.07 48.37 3.69 42.37 1.6ZM 33.77 17.84C 33.77 18.68 33.1 19.35 32.22 19.35 31.38 19.35 30.71 18.68 30.71 17.84 30.71 17.01 31.38 16.29 32.22 16.29 33.1 16.29 33.77 17.01 33.77 17.84ZM 33.98 22.99C 33.98 22.99 33.77 22.15 33.77 22.15 33.77 22.15 35.91 20.9 36.5 20.02 36.5 20.02 37.3 21.53 37.3 21.53 37.3 21.53 40.32 17.84 41.91 21.4 41.91 21.4 41.91 32.92 41.91 32.92 41.91 32.92 42.58 32.92 42.58 32.92 42.58 32.92 42.58 33.96 42.58 33.96 42.58 33.96 39.14 33.96 39.14 33.96 39.14 33.96 39.06 33 39.06 33 39.06 33 39.52 32.92 39.52 32.92 39.52 32.92 39.52 22.45 39.52 22.45 39.52 22.45 39.48 20.56 38.01 22.15 38.01 22.15 37.04 23.75 37.04 24.58 37.04 24.58 37.04 33 37.04 33 37.04 33 38.09 33 38.09 33 38.09 33 38.09 33.96 38.09 33.96 38.09 33.96 34.28 33.96 34.28 33.96 34.28 33.96 34.28 33.08 34.28 33.08 34.28 33.08 34.82 33.04 34.82 33.04 34.82 33.04 34.74 23.2 34.74 23.2 34.74 23.16 34.61 22.78 33.98 22.99ZM 30.25 22.36C 30.25 22.36 30.25 21.82 30.25 21.82 30.25 21.82 31.26 21.19 31.63 20.35 31.63 20.35 33.27 20.27 33.27 20.27 33.27 20.27 33.27 33.08 33.27 33.08 33.27 33.08 33.9 33.08 33.9 33.08 33.9 33.08 33.9 33.96 33.9 33.96 33.9 33.96 30.17 33.96 30.17 33.96 30.17 33.96 30.17 33.08 30.17 33.08 30.17 33.08 30.92 33.08 30.92 33.08 30.92 33.08 30.92 22.36 30.92 22.36 30.92 22.36 30.25 22.36 30.25 22.36ZM 28.28 22.99C 28.28 22.99 28.57 21.11 27.19 22.24 27.19 22.24 26.27 23.08 26.22 24.04 26.22 24.04 26.27 33.12 26.27 33.12 26.27 33.12 27.02 33.12 27.02 33.12 27.02 33.12 27.02 33.96 27.02 33.96 27.02 33.96 22.87 33.96 22.87 33.96 22.87 33.96 22.87 33.12 22.87 33.12 22.87 33.12 23.79 33.12 23.79 33.12 23.79 33.12 23.79 23.2 23.79 23.2 23.79 23.2 23.83 22.24 22.87 22.07 22.87 22.07 25.09 20.69 25.51 19.94 25.51 19.94 26.35 20.44 26.35 20.44 26.35 20.44 26.27 21.69 26.27 21.69 26.27 21.69 27.31 21.74 27.94 20.27 27.94 20.27 30.46 19.52 30.08 22.7 30.08 22.7 29.24 24.29 28.28 22.99Z" fill="rgb(255,255,255)"/></svg>