<?xml version="1.0" encoding="utf-8"?>
<svg xmlns="http://www.w3.org/2000/svg"
	xmlns:xlink="http://www.w3.org/1999/xlink"
	width="110px" height="60px" viewBox="0 0 110 60">
<path fillRule="evenodd" d="M 108.4 44.76C 108.4 44.76 108.4 44.62 108.4 44.62 108.54 44.62 108.64 44.62 108.71 44.59 108.75 44.55 108.78 44.52 108.82 44.45 108.85 44.38 108.89 44.24 108.89 44.03 108.89 44.03 108.89 41.08 108.89 41.08 108.89 40.74 108.85 40.49 108.85 40.42 108.81 40.32 108.81 40.29 108.78 40.25 108.71 40.22 108.68 40.22 108.61 40.22 108.57 40.22 108.5 40.22 108.4 40.25 108.4 40.25 108.33 40.11 108.33 40.11 108.33 40.11 109.3 39.73 109.3 39.73 109.3 39.73 109.48 39.73 109.48 39.73 109.48 39.73 109.48 44.03 109.48 44.03 109.48 44.24 109.48 44.38 109.51 44.45 109.55 44.52 109.58 44.55 109.65 44.59 109.69 44.62 109.82 44.62 110 44.62 110 44.62 110 44.76 110 44.76 110 44.76 108.4 44.76 108.4 44.76ZM 104.33 37.27C 104.64 37.27 104.81 37.2 104.95 37.13 105.02 37.06 105.09 36.96 105.09 36.78 105.09 36.61 104.95 36.33 104.64 35.91 104.64 35.91 101.27 31.68 101.27 31.68 101.27 31.68 101.27 35.26 101.27 35.26 101.27 35.95 101.37 36.4 101.44 36.64 101.54 36.89 101.68 37.02 101.86 37.13 102.03 37.2 102.45 37.27 103.04 37.27 103.04 37.27 103.04 37.68 103.04 37.68 103.04 37.68 97.54 37.68 97.54 37.68 97.54 37.68 97.54 37.27 97.54 37.27 98.1 37.27 98.48 37.2 98.76 37.06 98.94 36.96 99.07 36.85 99.14 36.64 99.28 36.4 99.32 35.95 99.32 35.32 99.32 35.32 99.32 25.51 99.32 25.51 99.32 24.22 99.28 23.46 99.25 23.22 99.21 22.9 99.11 22.73 98.97 22.63 98.87 22.49 98.69 22.45 98.48 22.45 98.31 22.45 98.07 22.52 97.75 22.66 97.75 22.66 97.54 22.25 97.54 22.25 97.54 22.25 100.74 20.93 100.74 20.93 100.74 20.93 101.27 20.93 101.27 20.93 101.27 20.93 101.27 31.68 101.27 31.68 101.27 31.68 104.05 29.18 104.05 29.18 104.64 28.63 104.95 28.28 105.06 28.14 105.13 28.07 105.16 27.97 105.16 27.87 105.16 27.73 105.09 27.59 104.95 27.45 104.85 27.35 104.64 27.28 104.33 27.28 104.33 27.28 104.33 26.89 104.33 26.89 104.33 26.89 109.02 26.89 109.02 26.89 109.02 26.89 109.02 27.28 109.02 27.28 108.4 27.28 107.84 27.38 107.42 27.55 106.97 27.73 106.52 28.07 106 28.53 106 28.53 103.22 31.09 103.22 31.09 103.22 31.09 106 34.6 106 34.6 106.8 35.57 107.29 36.16 107.56 36.44 107.95 36.82 108.29 37.06 108.54 37.13 108.75 37.23 109.09 37.27 109.58 37.27 109.58 37.27 109.58 37.68 109.58 37.68 109.58 37.68 104.33 37.68 104.33 37.68 104.33 37.68 104.33 37.27 104.33 37.27ZM 96.43 28.98C 96.19 28.98 95.87 28.84 95.53 28.56 95.18 28.28 94.9 28.14 94.73 28.14 94.62 28.14 94.45 28.25 94.27 28.39 93.93 28.7 93.58 29.25 93.2 29.98 93.2 29.98 93.2 35.15 93.2 35.15 93.2 35.78 93.27 36.23 93.4 36.54 93.54 36.75 93.72 36.92 93.96 37.06 94.24 37.2 94.59 37.27 95.07 37.27 95.07 37.27 95.07 37.68 95.07 37.68 95.07 37.68 89.54 37.68 89.54 37.68 89.54 37.68 89.54 37.27 89.54 37.27 90.1 37.27 90.52 37.2 90.76 37.02 90.97 36.89 91.11 36.68 91.18 36.4 91.25 36.26 91.25 35.88 91.25 35.26 91.25 35.26 91.25 31.09 91.25 31.09 91.25 29.81 91.21 29.08 91.14 28.84 91.11 28.59 91 28.42 90.9 28.28 90.76 28.21 90.59 28.14 90.34 28.14 90.1 28.14 89.85 28.21 89.54 28.32 89.54 28.32 89.4 27.9 89.4 27.9 89.4 27.9 92.71 26.55 92.71 26.55 92.71 26.55 93.2 26.55 93.2 26.55 93.2 26.55 93.2 29.01 93.2 29.01 94.1 27.38 95.04 26.55 95.98 26.55 96.43 26.55 96.78 26.72 97.06 26.96 97.34 27.24 97.48 27.52 97.48 27.9 97.48 28.18 97.37 28.46 97.2 28.66 96.99 28.87 96.74 28.98 96.43 28.98ZM 89.89 40.46C 89.89 40.46 90 40.46 90 40.46 90 40.46 90 41.54 90 41.54 90 41.54 90.76 41.54 90.76 41.54 90.76 41.54 90.76 41.78 90.76 41.78 90.76 41.78 90 41.78 90 41.78 90 41.78 90 43.86 90 43.86 90 44.07 90.03 44.21 90.1 44.31 90.17 44.38 90.24 44.41 90.34 44.41 90.41 44.41 90.48 44.38 90.55 44.35 90.62 44.28 90.69 44.21 90.73 44.14 90.73 44.14 90.87 44.14 90.87 44.14 90.8 44.35 90.66 44.52 90.52 44.66 90.38 44.76 90.2 44.83 90.03 44.83 89.93 44.83 89.82 44.8 89.72 44.73 89.61 44.66 89.54 44.59 89.51 44.48 89.44 44.35 89.4 44.17 89.4 43.96 89.4 43.96 89.4 41.78 89.4 41.78 89.4 41.78 88.92 41.78 88.92 41.78 88.92 41.78 88.92 41.67 88.92 41.67 89.06 41.6 89.16 41.5 89.3 41.4 89.44 41.26 89.58 41.12 89.68 40.95 89.72 40.88 89.79 40.7 89.89 40.46ZM 86.69 37.93C 86.27 37.93 85.99 37.76 85.75 37.51 85.54 37.23 85.4 36.78 85.4 36.12 84.29 36.99 83.59 37.48 83.32 37.61 82.9 37.82 82.45 37.93 81.96 37.93 81.19 37.93 80.6 37.68 80.12 37.13 79.63 36.64 79.39 35.95 79.39 35.15 79.39 34.6 79.49 34.15 79.73 33.76 80.05 33.24 80.64 32.72 81.4 32.27 82.2 31.79 83.56 31.23 85.4 30.54 85.4 30.54 85.4 30.12 85.4 30.12 85.4 29.01 85.26 28.28 84.88 27.9 84.53 27.48 84.05 27.28 83.42 27.28 82.9 27.28 82.52 27.42 82.2 27.69 81.89 27.97 81.75 28.28 81.75 28.63 81.75 28.63 81.79 29.29 81.79 29.29 81.79 29.64 81.68 29.95 81.51 30.12 81.33 30.33 81.09 30.43 80.78 30.43 80.5 30.43 80.26 30.33 80.05 30.12 79.87 29.91 79.8 29.64 79.8 29.29 79.8 28.63 80.15 27.97 80.85 27.42 81.51 26.86 82.48 26.55 83.73 26.55 84.71 26.55 85.47 26.72 86.13 27.03 86.59 27.31 86.93 27.66 87.14 28.21 87.28 28.53 87.35 29.22 87.35 30.29 87.35 30.29 87.35 33.94 87.35 33.94 87.35 34.98 87.39 35.6 87.42 35.85 87.46 36.09 87.53 36.23 87.63 36.3 87.7 36.4 87.8 36.4 87.94 36.4 88.05 36.4 88.15 36.4 88.26 36.33 88.43 36.26 88.74 35.95 89.23 35.46 89.23 35.46 89.23 36.12 89.23 36.12 88.33 37.3 87.49 37.93 86.69 37.93ZM 85.4 31.23C 84.22 31.72 83.46 32.06 83.11 32.27 82.48 32.58 82.03 32.97 81.75 33.35 81.51 33.69 81.37 34.11 81.37 34.6 81.37 35.15 81.54 35.6 81.89 35.98 82.2 36.37 82.62 36.57 83.04 36.57 83.66 36.57 84.43 36.16 85.4 35.39 85.4 35.39 85.4 31.23 85.4 31.23ZM 81.19 41.99C 81.44 42.3 81.58 42.68 81.58 43.1 81.58 43.37 81.51 43.69 81.37 43.96 81.23 44.28 81.02 44.48 80.78 44.62 80.53 44.8 80.26 44.87 79.98 44.87 79.49 44.87 79.07 44.66 78.79 44.28 78.55 43.96 78.45 43.58 78.45 43.17 78.45 42.89 78.52 42.58 78.65 42.3 78.79 41.99 79 41.78 79.25 41.64 79.49 41.5 79.73 41.43 80.01 41.43 80.5 41.43 80.88 41.6 81.19 41.99ZM 79.52 41.78C 79.39 41.85 79.28 41.99 79.21 42.16 79.14 42.33 79.07 42.58 79.07 42.89 79.07 43.34 79.18 43.76 79.39 44.1 79.56 44.45 79.8 44.62 80.12 44.62 80.36 44.62 80.53 44.52 80.67 44.35 80.85 44.14 80.92 43.83 80.92 43.37 80.92 42.78 80.78 42.33 80.53 41.98 80.36 41.78 80.15 41.67 79.91 41.67 79.77 41.67 79.63 41.71 79.52 41.78ZM 72.71 30.54C 72.32 30.54 71.91 30.5 71.45 30.43 71.01 30.4 70.54 30.3 70.03 30.2 70.03 30.2 70.03 34.88 70.03 34.88 70.03 35.85 70.13 36.5 70.34 36.75 70.65 37.09 71.11 37.27 71.7 37.27 71.7 37.27 72.32 37.27 72.32 37.27 72.32 37.27 72.32 37.68 72.32 37.68 72.32 37.68 65.47 37.68 65.47 37.68 65.47 37.68 65.47 37.27 65.47 37.27 65.47 37.27 66.03 37.27 66.03 37.27 66.72 37.27 67.21 37.06 67.49 36.61 67.66 36.33 67.73 35.78 67.73 34.88 67.73 34.88 67.73 24.54 67.73 24.54 67.73 23.53 67.63 22.91 67.42 22.66 67.11 22.32 66.65 22.14 66.03 22.14 66.03 22.14 65.47 22.14 65.47 22.14 65.47 22.14 65.47 21.69 65.47 21.69 65.47 21.69 71.31 21.69 71.31 21.69 72.74 21.69 73.89 21.86 74.72 22.14 75.56 22.42 76.22 22.94 76.81 23.63 77.37 24.33 77.68 25.16 77.68 26.13 77.68 27.42 77.23 28.49 76.36 29.32 75.52 30.12 74.27 30.54 72.71 30.54ZM 74.55 24.43C 74.24 23.84 73.85 23.39 73.33 23.11 72.81 22.8 72.22 22.66 71.56 22.66 71.14 22.66 70.65 22.73 69.99 22.9 69.99 22.9 70.03 29.53 70.03 29.53 70.41 29.6 70.79 29.67 71.14 29.7 71.45 29.74 71.73 29.77 71.94 29.77 72.78 29.77 73.47 29.46 74.06 28.8 74.65 28.18 74.97 27.35 74.97 26.37 74.97 25.68 74.83 25.02 74.55 24.43ZM 52.29 59.99C 44.01 42.61 59.76 30.43 63.73 10.34 68.46 31.2 49.47 45.07 52.29 59.99ZM 47.8 49.65C 39.55 32.27 55.28 20.06 59.24 0.01 64.01 20.82 45.01 34.73 47.8 49.65ZM 38.16 37.27C 38.68 37.27 39.03 37.2 39.17 37.13 39.35 37.02 39.48 36.85 39.62 36.61 39.73 36.37 39.76 35.95 39.76 35.26 39.76 35.26 39.76 25.44 39.76 25.44 39.76 24.22 39.73 23.46 39.69 23.22 39.62 22.9 39.55 22.73 39.41 22.63 39.28 22.52 39.14 22.49 38.93 22.49 38.75 22.49 38.48 22.52 38.16 22.66 38.16 22.66 37.99 22.25 37.99 22.25 37.99 22.25 41.19 20.93 41.19 20.93 41.19 20.93 41.74 20.93 41.74 20.93 41.74 20.93 41.74 35.26 41.74 35.26 41.74 35.95 41.78 36.37 41.88 36.61 41.95 36.82 42.13 36.99 42.34 37.09 42.51 37.2 42.93 37.27 43.48 37.27 43.48 37.27 43.48 37.68 43.48 37.68 43.48 37.68 38.16 37.68 38.16 37.68 38.16 37.68 38.16 37.27 38.16 37.27ZM 34.65 37.93C 34.27 37.93 33.99 37.76 33.74 37.51 33.5 37.23 33.4 36.78 33.4 36.12 32.28 36.99 31.59 37.48 31.27 37.61 30.89 37.82 30.4 37.93 29.92 37.93 29.19 37.93 28.56 37.68 28.07 37.13 27.62 36.64 27.38 35.95 27.38 35.15 27.38 34.6 27.45 34.15 27.69 33.76 28.04 33.24 28.6 32.72 29.4 32.27 30.2 31.79 31.52 31.23 33.4 30.54 33.4 30.54 33.4 30.12 33.4 30.12 33.4 29.01 33.22 28.28 32.87 27.9 32.53 27.48 32.04 27.28 31.38 27.28 30.89 27.28 30.47 27.42 30.2 27.69 29.88 27.97 29.74 28.28 29.74 28.63 29.74 28.63 29.78 29.29 29.78 29.29 29.78 29.64 29.67 29.95 29.5 30.12 29.29 30.33 29.05 30.43 28.77 30.43 28.49 30.43 28.25 30.33 28.04 30.12 27.83 29.91 27.76 29.64 27.76 29.29 27.76 28.63 28.11 27.97 28.8 27.42 29.5 26.86 30.47 26.55 31.73 26.55 32.7 26.55 33.47 26.72 34.09 27.03 34.54 27.31 34.89 27.66 35.1 28.21 35.28 28.53 35.34 29.22 35.34 30.29 35.34 30.29 35.34 33.94 35.34 33.94 35.34 34.98 35.34 35.6 35.41 35.85 35.41 36.09 35.52 36.23 35.59 36.3 35.66 36.4 35.8 36.4 35.9 36.4 36.04 36.4 36.14 36.4 36.21 36.33 36.39 36.26 36.7 35.95 37.19 35.46 37.19 35.46 37.19 36.12 37.19 36.12 36.32 37.3 35.48 37.93 34.65 37.93ZM 33.4 31.23C 32.18 31.72 31.45 32.06 31.07 32.27 30.47 32.58 29.99 32.97 29.74 33.35 29.46 33.69 29.36 34.11 29.36 34.6 29.36 35.15 29.53 35.6 29.85 35.98 30.2 36.37 30.58 36.57 31.03 36.57 31.62 36.57 32.39 36.16 33.4 35.39 33.4 35.39 33.4 31.23 33.4 31.23ZM 22.26 36.09C 22.99 36.09 23.59 35.91 24.11 35.53 24.66 35.15 25.08 34.46 25.43 33.52 25.43 33.52 25.78 33.76 25.78 33.76 25.64 34.8 25.15 35.81 24.35 36.71 23.55 37.58 22.58 38.03 21.36 38.03 20.07 38.03 18.96 37.51 18.02 36.5 17.08 35.5 16.63 34.15 16.63 32.45 16.63 30.61 17.12 29.15 18.05 28.11 18.99 27.07 20.18 26.55 21.64 26.55 22.86 26.55 23.86 26.93 24.63 27.76 25.4 28.56 25.78 29.63 25.78 30.95 25.78 30.95 18.3 30.95 18.3 30.95 18.3 32.58 18.68 33.83 19.48 34.73 20.28 35.64 21.22 36.09 22.26 36.09ZM 23.31 30.29C 23.31 29.57 23.2 29.08 23.06 28.8 22.89 28.39 22.58 28.04 22.19 27.76 21.81 27.52 21.39 27.42 20.98 27.42 20.32 27.42 19.72 27.66 19.24 28.14 18.68 28.66 18.4 29.36 18.3 30.29 18.3 30.29 23.31 30.29 23.31 30.29ZM 11.65 37.68C 11.65 37.68 6.23 30.19 6.23 30.19 5.84 30.22 5.5 30.22 5.25 30.22 5.15 30.22 5.04 30.22 4.94 30.22 4.8 30.22 4.7 30.22 4.56 30.19 4.56 30.19 4.56 34.87 4.56 34.87 4.56 35.85 4.66 36.5 4.87 36.75 5.18 37.09 5.64 37.27 6.23 37.27 6.23 37.27 6.85 37.27 6.85 37.27 6.85 37.27 6.85 37.68 6.85 37.68 6.85 37.68 0 37.68 0 37.68 0 37.68 0 37.27 0 37.27 0 37.27 0.59 37.27 0.59 37.27 1.29 37.27 1.78 37.06 2.05 36.61 2.23 36.33 2.3 35.77 2.3 34.87 2.3 34.87 2.3 24.54 2.3 24.54 2.3 23.53 2.19 22.9 1.98 22.66 1.67 22.32 1.22 22.14 0.59 22.14 0.59 22.14 0 22.14 0 22.14 0 22.14 0 21.69 0 21.69 0 21.69 5.84 21.69 5.84 21.69 7.55 21.69 8.77 21.83 9.6 22.07 10.4 22.32 11.1 22.77 11.65 23.46 12.21 24.08 12.52 24.88 12.52 25.82 12.52 26.79 12.18 27.66 11.55 28.39 10.89 29.08 9.88 29.6 8.56 29.91 8.56 29.91 11.86 34.49 11.86 34.49 12.59 35.53 13.26 36.26 13.81 36.61 14.37 36.96 15.1 37.16 15.97 37.27 15.97 37.27 15.97 37.68 15.97 37.68 15.97 37.68 15.97 37.68 15.97 37.68 15.97 37.68 11.65 37.68 11.65 37.68ZM 8.7 28.49C 9.46 27.83 9.84 27 9.84 25.99 9.84 24.95 9.53 24.15 8.91 23.53 8.28 22.9 7.44 22.59 6.4 22.59 5.95 22.59 5.36 22.66 4.56 22.8 4.56 22.8 4.56 29.5 4.56 29.5 4.7 29.5 4.84 29.5 4.94 29.5 5.04 29.5 5.15 29.5 5.22 29.5 6.75 29.5 7.9 29.15 8.7 28.49ZM 68.71 39.73C 68.71 39.73 68.71 42.09 68.71 42.09 68.98 41.81 69.19 41.64 69.33 41.53 69.5 41.47 69.64 41.43 69.82 41.43 69.99 41.43 70.13 41.47 70.27 41.57 70.41 41.67 70.51 41.85 70.58 42.06 70.62 42.19 70.65 42.47 70.65 42.89 70.65 42.89 70.65 44.03 70.65 44.03 70.65 44.24 70.65 44.38 70.69 44.45 70.72 44.52 70.76 44.55 70.83 44.59 70.86 44.62 70.97 44.62 71.14 44.62 71.14 44.62 71.14 44.76 71.14 44.76 71.14 44.76 69.54 44.76 69.54 44.76 69.54 44.76 69.54 44.62 69.54 44.62 69.54 44.62 69.61 44.62 69.61 44.62 69.75 44.62 69.85 44.62 69.92 44.55 69.99 44.52 70.03 44.45 70.03 44.38 70.06 44.35 70.06 44.21 70.06 44.03 70.06 44.03 70.06 42.89 70.06 42.89 70.06 42.54 70.03 42.3 69.99 42.19 69.96 42.09 69.89 41.99 69.82 41.95 69.75 41.88 69.64 41.85 69.54 41.85 69.4 41.85 69.3 41.88 69.16 41.95 69.05 42.02 68.88 42.12 68.71 42.33 68.71 42.33 68.71 44.03 68.71 44.03 68.71 44.24 68.74 44.38 68.74 44.45 68.78 44.48 68.81 44.55 68.88 44.59 68.95 44.62 69.09 44.62 69.23 44.62 69.23 44.62 69.23 44.76 69.23 44.76 69.23 44.76 67.63 44.76 67.63 44.76 67.63 44.76 67.63 44.62 67.63 44.62 67.77 44.62 67.91 44.62 67.98 44.55 68.01 44.55 68.05 44.52 68.08 44.45 68.12 44.38 68.12 44.24 68.12 44.03 68.12 44.03 68.12 41.08 68.12 41.08 68.12 40.74 68.12 40.5 68.12 40.43 68.08 40.32 68.05 40.29 68.01 40.25 67.98 40.22 67.94 40.22 67.87 40.22 67.84 40.22 67.73 40.22 67.63 40.25 67.63 40.25 67.59 40.11 67.59 40.11 67.59 40.11 68.57 39.73 68.57 39.73 68.57 39.73 68.71 39.73 68.71 39.73ZM 99.63 41.43C 100.02 41.43 100.29 41.53 100.54 41.78 100.78 42.02 100.89 42.33 100.89 42.75 100.89 42.75 98.66 42.75 98.66 42.75 98.66 43.23 98.76 43.62 99.01 43.86 99.25 44.14 99.53 44.28 99.84 44.28 100.05 44.28 100.22 44.24 100.4 44.1 100.54 44 100.68 43.79 100.78 43.51 100.78 43.51 100.88 43.58 100.88 43.58 100.85 43.89 100.71 44.21 100.47 44.48 100.22 44.73 99.91 44.87 99.56 44.87 99.18 44.87 98.83 44.73 98.55 44.41 98.28 44.1 98.14 43.69 98.14 43.2 98.14 42.64 98.28 42.19 98.55 41.88 98.87 41.57 99.22 41.43 99.63 41.43ZM 100.15 42.54C 100.15 42.33 100.12 42.19 100.08 42.09 100.02 41.95 99.95 41.88 99.81 41.78 99.7 41.71 99.56 41.67 99.46 41.67 99.25 41.67 99.08 41.74 98.94 41.92 98.76 42.06 98.66 42.26 98.66 42.54 98.66 42.54 100.15 42.54 100.15 42.54Z" fill="rgb(255,255,255)"/></svg>