<?xml version="1.0" encoding="utf-8"?>
<svg xmlns="http://www.w3.org/2000/svg"
	xmlns:xlink="http://www.w3.org/1999/xlink"
	width="102px" height="60px" viewBox="0 0 102 60">
<path fillRule="evenodd" d="M 96.18 36.92C 96.18 36.92 96.18 29.04 96.18 29.04 96.18 29.04 97.36 29.04 97.36 29.04 97.36 29.04 97.36 35.76 97.36 35.76 97.36 35.76 102 35.76 102 35.76 102 35.76 102 36.92 102 36.92 102 36.92 96.18 36.92 96.18 36.92ZM 83.46 24.69C 83.46 24.69 84.61 24.51 84.61 24.51 84.61 24.51 84.63 7.11 84.63 7.11 84.63 7.11 83.48 6.98 83.48 6.98 83.48 6.98 83.48 6.63 83.48 6.63 83.48 6.63 101.13 6.65 101.13 6.65 101.13 6.65 101.11 12.39 101.11 12.39 101.11 12.39 100.92 12.39 100.92 12.39 99.84 9.44 97.21 7.23 93.77 6.96 93.77 6.96 90.34 6.96 90.34 6.96 90.34 6.96 90.36 15.23 90.36 15.23 91.68 15.35 93.32 15.09 94.37 14.26 95.01 13.75 95.38 12.84 95.56 12.06 95.56 12.06 95.77 12.06 95.77 12.06 95.77 12.06 95.75 18.67 95.75 18.67 95.75 18.67 95.54 18.67 95.54 18.67 95.42 17.91 95.21 17.41 94.82 16.94 93.86 15.75 91.82 15.48 90.36 15.52 90.36 15.52 90.36 24.69 90.36 24.69 90.36 24.69 94.12 24.69 94.12 24.69 96.53 24.66 100.2 22.3 101.71 18.3 101.71 18.3 101.85 18.3 101.85 18.3 101.85 18.3 101.87 25.04 101.87 25.04 101.87 25.04 83.46 25.06 83.46 25.06 83.46 25.06 83.46 24.69 83.46 24.69ZM 64.85 18.75C 64.17 17.25 63.78 15.58 64.21 13.81 64.78 11.42 66.61 9.4 68.61 8.06 70.6 6.69 73.25 6.12 74.65 6.12 74.65 6.12 82.29 6.12 82.29 6.12 82.29 6.12 82.31 12.26 82.31 12.26 82.31 12.26 82.01 12.26 82.01 12.26 81.81 10.94 80.67 8.01 77.83 6.76 75.72 5.83 73.02 6.96 71.71 8.82 69.38 12.1 68.73 17.59 71.5 21.99 72.7 23.89 75.37 25.47 77.61 24.9 80.76 24.09 82.16 21.94 82.29 18.05 82.29 18.05 82.68 18.05 82.68 18.05 82.68 18.05 82.68 25.31 82.68 25.31 82.68 25.31 77.28 25.29 77.28 25.29 70.31 25.29 66.9 23.27 64.85 18.75ZM 64.61 9.68C 64.61 9.68 58.33 17.39 58.33 17.39 58.33 17.39 58.33 24.59 58.33 24.59 58.33 24.59 59.87 24.59 59.87 24.59 59.87 24.59 59.87 24.95 59.87 24.95 59.87 24.95 51.24 24.95 51.24 24.95 51.24 24.95 51.24 24.59 51.24 24.59 51.24 24.59 52.93 24.59 52.93 24.59 52.93 24.59 52.93 18.44 52.93 18.44 52.93 18.44 42.6 6.6 42.6 6.6 42.6 6.6 41.36 6.6 41.36 6.6 41.36 6.6 41.36 6.21 41.36 6.21 41.36 6.21 50.78 6.21 50.78 6.21 50.78 6.21 50.78 6.66 50.78 6.66 50.78 6.66 49.7 6.66 49.7 6.66 49.26 6.68 49.16 6.96 49.76 7.64 49.76 7.64 58.04 17.04 58.04 17.04 58.45 16.58 58.97 16.14 59.38 15.68 61.65 13.12 62.42 11.12 62.85 9.1 62.95 8.61 62.87 7.99 62.58 7.6 62.09 6.9 61.38 6.86 60.82 6.86 60.82 6.86 60.82 6.5 60.82 6.5 60.82 6.5 68.72 6.5 68.72 6.5 68.72 6.5 68.72 6.86 68.72 6.86 68.54 6.86 67.86 6.96 67.41 7.23 66.36 7.86 65.44 8.67 64.61 9.68ZM 46.47 15.58C 46.47 20.84 41.07 25.1 34.41 25.1 27.75 25.1 22.35 20.84 22.35 15.58 22.35 10.32 27.75 6.06 34.41 6.06 41.07 6.06 46.47 10.32 46.47 15.58ZM 34.51 6.39C 30.97 6.39 28.07 10.52 28.07 15.57 28.07 20.62 30.97 24.74 34.51 24.74 38.04 24.74 40.94 20.62 40.94 15.57 40.94 10.52 38.04 6.39 34.51 6.39ZM 15.91 15.83C 15.47 15.93 14.86 16.02 13.54 16.24 15.68 16.86 17.82 17.79 19.61 19.02 21 20.01 23.35 22.47 24.62 24.16 24.62 24.16 37.75 41.56 37.75 41.56 42.72 48.13 46.58 51.71 51.09 54.34 53.62 55.84 58.61 57.59 61.18 57.51 63.87 57.43 66.56 56.54 67.57 55.92 68.13 55.57 68.65 56.09 67.72 56.69 64.76 58.57 62.51 59.29 59.54 59.82 57.42 60.2 53.8 59.97 50.43 59.22 47.6 58.59 44.08 56.98 42.31 55.76 38.06 52.83 34.73 49.7 31.3 45.27 30.17 43.81 29.43 42.32 28.67 40.82 28.67 40.82 19.79 23.44 19.79 23.44 19.07 22.02 18.13 20.49 16.83 19.3 15.37 17.93 13.61 16.7 11.67 16.35 11.67 16.35 11.67 16.06 11.67 16.06 12.17 15.93 13.09 15.71 13.59 15.36 14.77 14.8 17.51 10.98 16.75 7.03 15.6 1.06 12.51 0.47 11.51 0.57 11.51 0.57 8.39 0.57 8.39 0.57 8.39 0.57 8.41 32.47 8.41 32.47 8.41 32.47 9.68 33.85 9.68 33.85 9.68 33.85 9.66 34.32 9.66 34.32 9.66 34.32 0 26.28 0 26.28 0 26.28 0 25.79 0 25.79 0 25.79 1.07 26.67 1.07 26.67 1.38 26.92 1.87 26.74 1.87 26.32 1.87 26.32 1.91 0.43 1.91 0.43 1.91 0.43 0.16 0.43 0.16 0.43 0.16 0.43 0.16-0 0.16-0 0.16-0 16.58-0 16.58-0 18.99-0 21.99 2.43 23.06 5.01 24.21 7.81 23 11.11 20.88 13.25 19.79 14.35 17.57 15.46 15.91 15.83ZM 65.31 36.93C 65.31 36.93 64.18 36.93 64.18 36.93 64.18 36.93 64.18 29.05 64.18 29.05 64.18 29.05 65.31 29.05 65.31 29.05 65.31 29.05 65.31 32.12 65.31 32.12 65.31 32.12 70.14 32.12 70.14 32.12 70.14 32.12 70.14 29.05 70.14 29.05 70.14 29.05 71.27 29.05 71.27 29.05 71.27 29.05 71.27 36.93 71.27 36.93 71.27 36.93 70.12 36.93 70.12 36.93 70.12 36.93 70.12 33.01 70.12 33.01 70.12 33.01 65.31 33.01 65.31 33.01 65.31 33.01 65.31 36.93 65.31 36.93ZM 76.59 28.77C 79.01 28.77 80.99 30.65 80.99 32.92 80.99 35.19 79.01 37.06 76.59 37.06 74.16 37.06 72.19 35.19 72.19 32.92 72.19 30.65 74.16 28.77 76.59 28.77ZM 76.59 35.85C 78.3 35.85 79.72 34.49 79.72 32.92 79.72 31.35 78.3 29.99 76.59 29.99 74.89 29.99 73.47 31.35 73.47 32.92 73.47 34.49 74.89 35.85 76.59 35.85ZM 80.67 29.04C 80.67 29.04 87.74 29.04 87.74 29.04 87.74 29.04 87.74 30.09 87.74 30.09 87.74 30.09 84.76 30.09 84.76 30.09 84.76 30.09 84.76 36.92 84.76 36.92 84.76 36.92 83.61 36.92 83.61 36.92 83.61 36.92 83.61 30.09 83.61 30.09 83.61 30.09 80.67 30.09 80.67 30.09 80.67 30.09 80.67 29.04 80.67 29.04ZM 94.6 30.09C 94.6 30.09 89.65 30.09 89.65 30.09 89.65 30.09 89.65 32.42 89.65 32.42 89.65 32.42 94.31 32.42 94.31 32.42 94.31 32.42 94.31 33.43 94.31 33.43 94.31 33.43 89.65 33.43 89.65 33.43 89.65 33.43 89.65 35.78 89.65 35.78 89.65 35.78 94.66 35.78 94.66 35.78 94.66 35.78 94.66 36.92 94.66 36.92 94.66 36.92 88.48 36.92 88.48 36.92 88.48 36.92 88.48 29.04 88.48 29.04 88.48 29.04 94.6 29.04 94.6 29.04 94.6 29.04 94.6 30.09 94.6 30.09Z" fill="rgb(255,255,255)"/></svg>