<?xml version="1.0" encoding="utf-8"?>
<svg xmlns="http://www.w3.org/2000/svg"
	xmlns:xlink="http://www.w3.org/1999/xlink"
	width="204px" height="30px" viewBox="0 0 204 30">
<style type="text/css"><![CDATA[
.style0 {
  font-size: 12px;
  font-family: "Raleway-SemiBold";
  fill: rgb(63,62,65);
  text-transform: uppercase;
}
]]></style>
<text transform="translate(194.00,9.00)" class="style0"><tspan x="0.00" fill="rgb(62,61,64)">©</tspan></text><path fillRule="evenodd" d="M 178.97 20.24C 178.97 20.24 178.97 29.83 178.97 29.83 178.97 29.83 171.02 29.83 171.02 29.83 171.02 29.83 171.02 20.16 171.02 20.16 171.02 20.16 160.46-0.01 160.46-0.01 160.46-0.01 169.31-0.01 169.31-0.01 169.31-0.01 175.18 12.23 175.18 12.23 175.18 12.23 181.17-0.01 181.17-0.01 181.17-0.01 190.01-0.01 190.01-0.01 190.01-0.01 178.97 20.24 178.97 20.24ZM 164.39 29.83C 164.39 29.83 141.85 29.83 141.85 29.83 141.85 29.83 141.85-0.01 141.85-0.01 141.85-0.01 149.8-0.01 149.8-0.01 149.8-0.01 149.8 23.34 149.8 23.34 149.8 23.34 164.39 23.34 164.39 23.34 164.39 23.34 164.39 29.83 164.39 29.83ZM 115.33-0.01C 115.33-0.01 137.87-0.01 137.87-0.01 137.87-0.01 137.87 7.77 137.87 7.77 137.87 7.77 123.29 7.77 123.29 7.77 123.29 7.77 123.29 11.66 123.29 11.66 123.29 11.66 135.22 11.66 135.22 11.66 135.22 11.66 135.22 18.15 135.22 18.15 135.22 18.15 123.29 18.15 123.29 18.15 123.29 18.15 123.29 23.34 123.29 23.34 123.29 23.34 137.87 23.34 137.87 23.34 137.87 23.34 137.87 29.83 137.87 29.83 137.87 29.83 115.33 29.83 115.33 29.83 115.33 29.83 115.33-0.01 115.33-0.01ZM 95.03 29.83C 95.03 29.83 83.34-0.01 83.34-0.01 83.34-0.01 91.89-0.01 91.89-0.01 91.89-0.01 98.31 18.84 98.31 18.84 98.31 18.84 104.62-0.01 104.62-0.01 104.62-0.01 113.17-0.01 113.17-0.01 113.17-0.01 101.57 29.83 101.57 29.83 101.57 29.83 95.03 29.83 95.03 29.83ZM 77.54 29.83C 77.54 29.83 75.28 24.64 75.28 24.64 75.28 24.64 67.15 24.64 67.15 24.64 67.15 24.64 64.93 29.83 64.93 29.83 64.93 29.83 56.48 29.83 56.48 29.83 56.48 29.83 56.46 29.83 56.46 29.83 56.46 29.83 68.07-0.01 68.07-0.01 68.07-0.01 74.44-0.01 74.44-0.01 74.44-0.01 86.13 29.83 86.13 29.83 86.13 29.83 77.54 29.83 77.54 29.83ZM 71.22 10.33C 71.22 10.33 68.65 18.15 68.65 18.15 68.65 18.15 73.7 18.15 73.7 18.15 73.7 18.15 71.22 10.33 71.22 10.33ZM 56.27 29.83C 56.27 29.83 56.34 29.83 56.34 29.83 56.34 29.83 56.46 29.83 56.46 29.83 56.46 29.83 56.39 30.01 56.39 30.01 56.39 30.01 56.27 29.83 56.27 29.83ZM 41.44 20.75C 41.44 20.75 38.44 20.75 38.44 20.75 38.44 20.75 38.44 29.83 38.44 29.83 38.44 29.83 30.48 29.83 30.48 29.83 30.48 29.83 30.48-0.01 30.48-0.01 30.48-0.01 43.82-0.01 43.82-0.01 45.29-0.01 46.67 0.6 47.92 1.21 49.15 1.8 50.23 2.9 51.13 3.87 52.03 4.83 52.74 5.94 53.25 7.16 53.76 8.38 54.02 9.64 54.02 10.9 54.02 11.83 53.9 12.74 53.67 13.6 53.44 14.47 53.1 15.28 52.66 16.05 52.22 16.82 51.68 17.49 51.05 18.1 50.58 18.56 50.07 18.89 49.51 19.25 49.51 19.25 56.27 29.83 56.27 29.83 56.27 29.83 47.32 29.83 47.32 29.83 47.32 29.83 41.44 20.75 41.44 20.75ZM 45.02 8.57C 44.49 8.01 43.95 7.77 43.37 7.77 43.37 7.77 38.44 7.77 38.44 7.77 38.44 7.77 38.44 14.26 38.44 14.26 38.44 14.26 43.58 14.26 43.58 14.26 44.16 14.26 44.66 13.96 45.1 13.39 45.59 12.77 45.83 11.93 45.83 10.93 45.83 9.91 45.57 9.15 45.02 8.57ZM 17.23 29.83C 17.23 29.83 9.27 29.83 9.27 29.83 9.27 29.83 9.27 7.77 9.27 7.77 9.27 7.77-0.01 7.77-0.01 7.77-0.01 7.77-0.01-0.01-0.01-0.01-0.01-0.01 26.51-0.01 26.51-0.01 26.51-0.01 26.51 7.77 26.51 7.77 26.51 7.77 17.23 7.77 17.23 7.77 17.23 7.77 17.23 29.83 17.23 29.83Z" fill="rgb(253,91,7)"/></svg>