<?xml version="1.0" encoding="utf-8"?>
<svg xmlns="http://www.w3.org/2000/svg"
	xmlns:xlink="http://www.w3.org/1999/xlink"
	width="155px" height="25px" viewBox="0 0 155 25">
<style type="text/css"><![CDATA[
.style0 {
  font-size: 10px;
  font-family: "Raleway-SemiBold";
  fill: rgb(63,62,65);
  text-transform: uppercase;
}
]]></style>
<text transform="translate(147.00,8.00)" class="style0"><tspan x="0.00" fill="rgb(62,61,64)">©</tspan></text><path fillRule="evenodd" d="M 135.34 17.04C 135.34 17.04 135.34 24.43 135.34 24.43 135.34 24.43 129.34 24.43 129.34 24.43 129.34 24.43 129.34 16.97 129.34 16.97 129.34 16.97 121.38 1.43 121.38 1.43 121.38 1.43 128.05 1.43 128.05 1.43 128.05 1.43 132.48 10.87 132.48 10.87 132.48 10.87 136.99 1.43 136.99 1.43 136.99 1.43 143.66 1.43 143.66 1.43 143.66 1.43 135.34 17.04 135.34 17.04ZM 124.34 24.43C 124.34 24.43 107.34 24.43 107.34 24.43 107.34 24.43 107.34 1.43 107.34 1.43 107.34 1.43 113.34 1.43 113.34 1.43 113.34 1.43 113.34 19.43 113.34 19.43 113.34 19.43 124.34 19.43 124.34 19.43 124.34 19.43 124.34 24.43 124.34 24.43ZM 87.34 1.43C 87.34 1.43 104.34 1.43 104.34 1.43 104.34 1.43 104.34 7.43 104.34 7.43 104.34 7.43 93.34 7.43 93.34 7.43 93.34 7.43 93.34 10.43 93.34 10.43 93.34 10.43 102.34 10.43 102.34 10.43 102.34 10.43 102.34 15.43 102.34 15.43 102.34 15.43 93.34 15.43 93.34 15.43 93.34 15.43 93.34 19.43 93.34 19.43 93.34 19.43 104.34 19.43 104.34 19.43 104.34 19.43 104.34 24.43 104.34 24.43 104.34 24.43 87.34 24.43 87.34 24.43 87.34 24.43 87.34 1.43 87.34 1.43ZM 72.02 24.43C 72.02 24.43 63.21 1.43 63.21 1.43 63.21 1.43 69.66 1.43 69.66 1.43 69.66 1.43 74.5 15.96 74.5 15.96 74.5 15.96 79.26 1.43 79.26 1.43 79.26 1.43 85.71 1.43 85.71 1.43 85.71 1.43 76.96 24.43 76.96 24.43 76.96 24.43 72.02 24.43 72.02 24.43ZM 58.83 24.43C 58.83 24.43 57.13 20.43 57.13 20.43 57.13 20.43 50.99 20.43 50.99 20.43 50.99 20.43 49.32 24.43 49.32 24.43 49.32 24.43 42.94 24.43 42.94 24.43 42.94 24.43 42.93 24.43 42.93 24.43 42.93 24.43 51.68 1.43 51.68 1.43 51.68 1.43 56.5 1.43 56.5 1.43 56.5 1.43 65.31 24.43 65.31 24.43 65.31 24.43 58.83 24.43 58.83 24.43ZM 54.07 9.4C 54.07 9.4 52.13 15.43 52.13 15.43 52.13 15.43 55.94 15.43 55.94 15.43 55.94 15.43 54.07 9.4 54.07 9.4ZM 42.79 24.43C 42.79 24.43 42.84 24.43 42.84 24.43 42.84 24.43 42.93 24.43 42.93 24.43 42.93 24.43 42.88 24.57 42.88 24.57 42.88 24.57 42.79 24.43 42.79 24.43ZM 31.6 17.43C 31.6 17.43 29.34 17.43 29.34 17.43 29.34 17.43 29.34 24.43 29.34 24.43 29.34 24.43 23.34 24.43 23.34 24.43 23.34 24.43 23.34 1.43 23.34 1.43 23.34 1.43 33.4 1.43 33.4 1.43 34.5 1.43 35.54 1.9 36.49 2.37 37.42 2.83 38.23 3.68 38.91 4.42 39.59 5.16 40.13 6.01 40.51 6.95 40.89 7.9 41.09 8.87 41.09 9.84 41.09 10.56 41 11.25 40.83 11.92 40.65 12.59 40.39 13.22 40.07 13.81 39.73 14.4 39.33 14.92 38.85 15.39 38.5 15.75 38.11 16 37.68 16.28 37.68 16.28 42.79 24.43 42.79 24.43 42.79 24.43 36.03 24.43 36.03 24.43 36.03 24.43 31.6 17.43 31.6 17.43ZM 34.3 8.04C 33.9 7.61 33.49 7.43 33.06 7.43 33.06 7.43 29.34 7.43 29.34 7.43 29.34 7.43 29.34 12.43 29.34 12.43 29.34 12.43 33.21 12.43 33.21 12.43 33.65 12.43 34.03 12.2 34.36 11.76 34.73 11.28 34.91 10.63 34.91 9.86 34.91 9.07 34.71 8.49 34.3 8.04ZM 13.34 24.43C 13.34 24.43 7.34 24.43 7.34 24.43 7.34 24.43 7.34 7.43 7.34 7.43 7.34 7.43 0.34 7.43 0.34 7.43 0.34 7.43 0.34 1.43 0.34 1.43 0.34 1.43 20.34 1.43 20.34 1.43 20.34 1.43 20.34 7.43 20.34 7.43 20.34 7.43 13.34 7.43 13.34 7.43 13.34 7.43 13.34 24.43 13.34 24.43Z" fill="rgb(255,255,255)"/></svg>